<svg width="24" height="24" viewBox="0 0 24 24" fill="none" xmlns="http://www.w3.org/2000/svg">
<path d="M8 13.8845C7.79333 13.8845 7.61333 13.8079 7.46 13.6545C7.30667 13.5012 7.23 13.3212 7.23 13.1145C7.23 12.9079 7.30667 12.7282 7.46 12.5755C7.61333 12.4229 7.79333 12.3462 8 12.3455C8.20667 12.3449 8.38667 12.4215 8.54 12.5755C8.69333 12.7295 8.77 12.9095 8.77 13.1155C8.77 13.3215 8.69333 13.5012 8.54 13.6545C8.38667 13.8079 8.20667 13.8845 8 13.8845ZM12 13.8845C11.7933 13.8845 11.6133 13.8079 11.46 13.6545C11.3067 13.5012 11.23 13.3212 11.23 13.1145C11.23 12.9079 11.3067 12.7282 11.46 12.5755C11.6133 12.4229 11.7933 12.3462 12 12.3455C12.2067 12.3449 12.3867 12.4215 12.54 12.5755C12.6933 12.7295 12.77 12.9095 12.77 13.1155C12.77 13.3215 12.6933 13.5012 12.54 13.6545C12.3867 13.8079 12.2067 13.8845 12 13.8845ZM16 13.8845C15.7933 13.8845 15.6133 13.8079 15.46 13.6545C15.3067 13.5012 15.23 13.3212 15.23 13.1145C15.23 12.9079 15.3067 12.7282 15.46 12.5755C15.6133 12.4229 15.7933 12.3462 16 12.3455C16.2067 12.3449 16.3867 12.4215 16.54 12.5755C16.6933 12.7295 16.77 12.9095 16.77 13.1155C16.77 13.3215 16.6933 13.5012 16.54 13.6545C16.3867 13.8079 16.2067 13.8845 16 13.8845ZM5.616 20.9995C5.15533 20.9995 4.771 20.8455 4.463 20.5375C4.155 20.2295 4.00067 19.8452 4 19.3845V6.61453C4 6.15453 4.15433 5.77053 4.463 5.46253C4.77167 5.15453 5.156 5.0002 5.616 4.99953H7.385V2.76953H8.462V4.99953H15.616V2.76953H16.616V4.99953H18.385C18.845 4.99953 19.2293 5.15386 19.538 5.46253C19.8467 5.7712 20.0007 6.15553 20 6.61553V19.3845C20 19.8445 19.846 20.2289 19.538 20.5375C19.23 20.8462 18.8453 21.0002 18.384 20.9995H5.616ZM5.616 19.9995H18.385C18.5383 19.9995 18.6793 19.9355 18.808 19.8075C18.9367 19.6795 19.0007 19.5382 19 19.3835V10.6155H5V19.3845C5 19.5379 5.064 19.6789 5.192 19.8075C5.32 19.9362 5.461 20.0002 5.615 19.9995" fill="url(#paint0_linear_609_2685)"/>
<defs>
<linearGradient id="paint0_linear_609_2685" x1="12" y1="2.76953" x2="12" y2="20.9995" gradientUnits="userSpaceOnUse">
<stop stop-color="#C729BC"/>
<stop offset="1" stop-color="#33209C"/>
</linearGradient>
</defs>
</svg>
