<svg width="131" height="131" viewBox="0 0 131 131" fill="none" xmlns="http://www.w3.org/2000/svg">
<path d="M108.27 115.108C120.918 104.204 128.923 88.8804 130.649 72.2705C132.375 55.6606 127.692 39.0185 117.557 25.7465C107.422 12.4745 92.5998 3.57486 76.1214 0.866911C59.643 -1.84104 42.7526 1.84723 28.903 11.1777C15.0534 20.5082 5.2906 34.7763 1.61038 51.0651C-2.06983 67.3539 0.610481 84.4333 9.1034 98.8118C17.5963 113.19 31.2604 123.782 47.3024 128.421C63.3443 133.061 80.5526 131.398 95.4093 123.772L93.9737 120.975C79.8301 128.235 63.4478 129.818 48.1758 125.401C32.9039 120.984 19.8957 110.901 11.8104 97.2128C3.72515 83.5245 1.17348 67.2649 4.67705 51.758C8.18062 36.251 17.4748 22.6678 30.6596 13.7852C43.8445 4.90253 59.9242 1.3913 75.6116 3.96927C91.299 6.54724 105.409 15.0197 115.058 27.6547C124.707 40.2896 129.165 56.1328 127.522 71.9455C125.879 87.7582 118.258 102.346 106.217 112.727L108.27 115.108Z" fill="url(#paint0_linear_763_2119)"/>
<path fill-rule="evenodd" clip-rule="evenodd" d="M99.5414 125.082H103.297C105.935 125.082 107.254 125.082 108.202 124.461C108.611 124.193 108.963 123.847 109.238 123.443C109.871 122.514 109.871 121.218 109.871 118.628C109.871 116.039 109.871 114.743 109.238 113.814C108.963 113.41 108.611 113.064 108.202 112.796C107.593 112.396 106.831 112.253 105.664 112.203C105.107 112.203 104.628 111.789 104.519 111.252C104.435 110.859 104.219 110.506 103.906 110.255C103.593 110.003 103.202 109.866 102.8 109.869H100.038C99.2034 109.869 98.4841 110.448 98.3202 111.252C98.2112 111.789 97.7319 112.203 97.175 112.203C96.0087 112.253 95.2463 112.397 94.637 112.796C94.2284 113.064 93.8766 113.41 93.6016 113.814C92.9678 114.743 92.9678 116.038 92.9678 118.628C92.9678 121.219 92.9678 122.513 93.6008 123.443C93.8746 123.846 94.2262 124.191 94.637 124.461C95.5844 125.082 96.9037 125.082 99.5414 125.082ZM101.419 115.171C99.4747 115.171 97.8976 116.718 97.8976 118.628C97.8976 120.537 99.4755 122.087 101.419 122.087C103.363 122.087 104.941 120.538 104.941 118.629C104.941 116.72 103.363 115.171 101.419 115.171ZM101.419 116.554C100.253 116.554 99.3065 117.482 99.3065 118.628C99.3065 119.774 100.253 120.702 101.419 120.702C102.586 120.702 103.532 119.774 103.532 118.628C103.532 117.483 102.586 116.554 101.419 116.554ZM105.41 115.862C105.41 115.48 105.725 115.171 106.115 115.171H107.053C107.442 115.171 107.758 115.48 107.758 115.862C107.756 116.047 107.681 116.224 107.549 116.354C107.417 116.483 107.239 116.555 107.054 116.554H106.115C106.023 116.554 105.932 116.537 105.847 116.503C105.762 116.469 105.685 116.418 105.619 116.354C105.554 116.29 105.502 116.213 105.466 116.129C105.43 116.045 105.411 115.954 105.41 115.862Z" fill="black"/>
<defs>
<linearGradient id="paint0_linear_763_2119" x1="65.5" y1="0" x2="65.5" y2="131" gradientUnits="userSpaceOnUse">
<stop stop-color="#C729BC"/>
<stop offset="1" stop-color="#3A22A8"/>
</linearGradient>
</defs>
</svg>
