<svg width="133" height="133" viewBox="0 0 133 133" fill="none" xmlns="http://www.w3.org/2000/svg">
<mask id="mask0_605_2485" style="mask-type:luminance" maskUnits="userSpaceOnUse" x="5" y="5" width="123" height="123">
<path d="M66.4995 121.915C73.7782 121.924 80.987 120.495 87.7116 117.71C94.4363 114.924 100.544 110.837 105.685 105.684C110.838 100.543 114.925 94.4355 117.71 87.7109C120.496 80.9862 121.925 73.7775 121.916 66.4987C121.925 59.22 120.496 52.0112 117.71 45.2866C114.925 38.562 110.838 32.454 105.685 27.3136C100.544 22.1603 94.4363 18.0735 87.7116 15.288C80.987 12.5024 73.7782 11.0731 66.4995 11.0821C59.2207 11.0731 52.012 12.5024 45.2873 15.288C38.5627 18.0735 32.4547 22.1603 27.3143 27.3136C22.161 32.454 18.0742 38.562 15.2887 45.2866C12.5032 52.0112 11.0738 59.22 11.0828 66.4987C11.0738 73.7775 12.5032 80.9862 15.2887 87.7109C18.0742 94.4355 22.161 100.543 27.3143 105.684C32.4547 110.837 38.5627 114.924 45.2873 117.71C52.012 120.495 59.2207 121.924 66.4995 121.915Z" fill="white" stroke="white" stroke-width="11.0833" stroke-linejoin="round"/>
<path d="M44.3328 66.498L60.9578 83.123L94.2078 49.873" stroke="black" stroke-width="11.0833" stroke-linecap="round" stroke-linejoin="round"/>
</mask>
<g mask="url(#mask0_605_2485)">
<path d="M-0.000244141 0H133V133H-0.000244141V0Z" fill="url(#paint0_linear_605_2485)"/>
</g>
<defs>
<linearGradient id="paint0_linear_605_2485" x1="66.4998" y1="0" x2="66.4998" y2="133" gradientUnits="userSpaceOnUse">
<stop stop-color="#C729BC"/>
<stop offset="1" stop-color="#33209C"/>
</linearGradient>
</defs>
</svg>
