<svg width="30" height="30" viewBox="0 0 30 30" fill="none" xmlns="http://www.w3.org/2000/svg">
<path d="M15.3849 19.3392L15.4799 18.0092L16.6387 17.348C17.7516 16.7037 18.7739 15.9143 19.6787 15.0005C22.9787 11.6992 23.9862 7.81796 22.7724 6.60296C21.5574 5.39046 17.6762 6.39546 14.3749 9.69671C13.4249 10.6467 12.6287 11.6842 12.0274 12.7367L11.3649 13.8955L10.0362 13.9905C8.9457 14.0667 7.91088 14.5008 7.09244 15.2255C8.65466 15.9134 10.0751 16.8862 11.2812 18.0942C12.5062 19.3192 13.4712 20.7405 14.1499 22.283C14.8746 21.4645 15.3087 20.4297 15.3849 19.3392ZM11.6687 22.8755C11.4162 23.2164 11.1392 23.5385 10.8399 23.8392C9.37494 25.3042 7.16494 25.7459 4.20994 25.1642C3.63077 22.21 4.07244 20.0005 5.53494 18.5355C5.84494 18.2271 6.16661 17.9509 6.49994 17.7067C5.47502 17.2066 4.38 16.8652 3.25244 16.6942C3.61665 15.5551 4.24795 14.5197 5.09369 13.6742C6.36689 12.3983 8.05823 11.6254 9.85619 11.498C10.6105 10.1916 11.5353 8.99152 12.6062 7.92921C16.7562 3.77921 22.0987 2.39546 24.5399 4.83546C26.9799 7.27671 25.5949 12.6192 21.4462 16.768C20.3839 17.8389 19.1838 18.7637 17.8774 19.518C17.75 21.3159 16.9771 23.0073 15.7012 24.2805C14.8571 25.1282 13.8212 25.7602 12.6812 26.123C12.5102 24.9954 12.1688 23.9004 11.6687 22.8755ZM9.51244 19.863C9.31116 19.6612 9.08421 19.4868 8.83744 19.3442C8.29744 19.5317 7.66244 19.9442 7.08119 20.5242C6.80744 20.7992 6.47244 21.723 6.46869 22.9055C7.65119 22.9017 8.57869 22.563 8.84994 22.293C9.43119 21.7105 9.84369 21.0767 10.0299 20.5367C9.88776 20.29 9.71377 20.0631 9.51244 19.8617V19.863ZM19.2349 10.138C19.1128 10.0233 19.015 9.88527 18.9473 9.73208C18.8796 9.57888 18.8434 9.41363 18.8408 9.24616C18.8382 9.07869 18.8693 8.9124 18.9322 8.75717C18.9951 8.60195 19.0886 8.46095 19.2071 8.34255C19.3255 8.22416 19.4666 8.13078 19.6219 8.06797C19.7771 8.00516 19.9435 7.9742 20.1109 7.97691C20.2784 7.97963 20.4436 8.01598 20.5968 8.0838C20.7499 8.15162 20.8879 8.24953 21.0024 8.37171C21.218 8.60941 21.3338 8.9209 21.3261 9.24168C21.3183 9.56245 21.1874 9.86795 20.9606 10.0949C20.7338 10.3219 20.4284 10.453 20.1076 10.461C19.7869 10.469 19.4753 10.3533 19.2374 10.138H19.2349Z" fill="url(#paint0_linear_594_2074)"/>
<defs>
<linearGradient id="paint0_linear_594_2074" x1="14.4984" y1="3.63086" x2="14.4984" y2="26.123" gradientUnits="userSpaceOnUse">
<stop stop-color="#C729BC"/>
<stop offset="1" stop-color="#33209C"/>
</linearGradient>
</defs>
</svg>
