<svg width="30" height="30" viewBox="0 0 30 30" fill="none" xmlns="http://www.w3.org/2000/svg">
<path d="M27.1875 28.125H17.8125C17.5639 28.125 17.3254 28.0262 17.1496 27.8504C16.9738 27.6746 16.875 27.4361 16.875 27.1875V17.8125C16.875 17.5639 16.9738 17.3254 17.1496 17.1496C17.3254 16.9738 17.5639 16.875 17.8125 16.875H27.1875C27.4361 16.875 27.6746 16.9738 27.8504 17.1496C28.0262 17.3254 28.125 17.5639 28.125 17.8125V27.1875C28.125 27.4361 28.0262 27.6746 27.8504 27.8504C27.6746 28.0262 27.4361 28.125 27.1875 28.125ZM18.75 26.25H26.25V18.75H18.75V26.25ZM7.5 28.125C4.39875 28.125 1.875 25.6012 1.875 22.5C1.875 19.3988 4.39875 16.875 7.5 16.875C10.6012 16.875 13.125 19.3988 13.125 22.5C13.125 25.6012 10.6012 28.125 7.5 28.125ZM7.5 18.75C5.43187 18.75 3.75 20.4319 3.75 22.5C3.75 24.5681 5.43187 26.25 7.5 26.25C9.56813 26.25 11.25 24.5681 11.25 22.5C11.25 20.4319 9.56813 18.75 7.5 18.75ZM20.625 13.125H9.375C9.20907 13.125 9.04611 13.0809 8.90278 12.9973C8.75945 12.9137 8.64089 12.7935 8.55919 12.6491C8.47749 12.5047 8.43558 12.3411 8.43776 12.1752C8.43993 12.0093 8.48611 11.8469 8.57156 11.7047L14.1984 2.32688C14.3794 2.025 14.6897 1.875 15 1.875C15.3103 1.875 15.6206 2.025 15.8016 2.32688L21.4284 11.7047C21.5139 11.8469 21.5601 12.0093 21.5622 12.1752C21.5644 12.3411 21.5225 12.5047 21.4408 12.6491C21.3591 12.7935 21.2405 12.9137 21.0972 12.9973C20.9539 13.0809 20.7909 13.125 20.625 13.125ZM11.0306 11.25H18.9694L15 4.635L11.0306 11.25Z" fill="url(#paint0_linear_605_2380)"/>
<defs>
<linearGradient id="paint0_linear_605_2380" x1="15" y1="1.875" x2="15" y2="28.125" gradientUnits="userSpaceOnUse">
<stop stop-color="#C729BC"/>
<stop offset="1" stop-color="#33209C"/>
</linearGradient>
</defs>
</svg>
