<svg width="24" height="25" viewBox="0 0 24 25" fill="none" xmlns="http://www.w3.org/2000/svg">
<path d="M13.75 22.0001H9.75V23.5001H13.75V22.0001ZM2.5 14.7501V10.7501H1V14.7501H2.5ZM21 14.3131V14.7501H22.5V14.3131H21ZM14.641 5.36106L18.6 8.92406L19.603 7.80806L15.645 4.24506L14.641 5.36106ZM22.5 14.3131C22.5 12.6241 22.515 11.5541 22.09 10.5981L20.719 11.2091C20.985 11.8071 21 12.4921 21 14.3131H22.5ZM18.6 8.92406C19.953 10.1421 20.453 10.6121 20.719 11.2091L22.09 10.5981C21.664 9.64106 20.859 8.93806 19.603 7.80806L18.6 8.92406ZM9.78 3.50006C11.362 3.50006 11.959 3.51206 12.49 3.71606L13.028 2.31606C12.176 1.98806 11.248 2.00006 9.78 2.00006V3.50006ZM15.645 4.24606C14.559 3.26906 13.88 2.64206 13.028 2.31606L12.491 3.71606C13.023 3.92006 13.471 4.30806 14.641 5.36106L15.645 4.24606ZM9.75 22.0001C7.843 22.0001 6.489 21.9981 5.46 21.8601C4.455 21.7251 3.875 21.4711 3.452 21.0481L2.392 22.1081C3.14 22.8581 4.089 23.1891 5.261 23.3471C6.411 23.5021 7.886 23.5001 9.75 23.5001V22.0001ZM1 14.7501C1 16.6141 0.998001 18.0881 1.153 19.2391C1.311 20.4111 1.643 21.3601 2.391 22.1091L3.451 21.0491C3.029 20.6251 2.775 20.0451 2.64 19.0391C2.502 18.0121 2.5 16.6571 2.5 14.7501H1ZM13.75 23.5001C15.614 23.5001 17.088 23.5021 18.239 23.3471C19.411 23.1891 20.36 22.8571 21.109 22.1091L20.049 21.0491C19.625 21.4711 19.045 21.7251 18.039 21.8601C17.012 21.9981 15.657 22.0001 13.75 22.0001V23.5001ZM21 14.7501C21 16.6571 20.998 18.0121 20.86 19.0401C20.725 20.0451 20.471 20.6251 20.048 21.0481L21.108 22.1081C21.858 21.3601 22.189 20.4111 22.347 19.2391C22.502 18.0891 22.5 16.6141 22.5 14.7501H21ZM2.5 10.7501C2.5 8.84306 2.502 7.48906 2.64 6.46006C2.775 5.45506 3.029 4.87506 3.452 4.45206L2.392 3.39206C1.642 4.14006 1.311 5.08906 1.153 6.26106C0.998001 7.41106 1 8.88606 1 10.7501H2.5ZM9.78 2.00006C7.905 2.00006 6.424 1.99806 5.269 2.15306C4.092 2.31106 3.14 2.64306 2.391 3.39106L3.451 4.45106C3.875 4.02906 4.456 3.77506 5.468 3.64006C6.501 3.50206 7.863 3.50006 9.78 3.50006V2.00006Z" fill="black"/>
<path d="M12.75 3.25V5.75C12.75 8.107 12.75 9.286 13.482 10.018C14.214 10.75 15.393 10.75 17.75 10.75H21.75" stroke="black" stroke-width="1.5"/>
<path d="M5.75 17.25L7.083 18.75L9.75 15.75" stroke="black" stroke-width="1.5" stroke-linecap="round" stroke-linejoin="round"/>
</svg>
