<svg width="50" height="50" viewBox="0 0 50 50" fill="none" xmlns="http://www.w3.org/2000/svg">
<rect x="3.94" y="3.93945" width="41.88" height="41.88" rx="20.94" fill="#FEE4E2"/>
<rect x="3.94" y="3.93945" width="41.88" height="41.88" rx="20.94" stroke="#FEF3F2" stroke-width="6.98"/>
<path d="M28.37 19.6443V18.9463C28.37 17.969 28.37 17.4804 28.1798 17.1071C28.0125 16.7787 27.7456 16.5118 27.4172 16.3445C27.044 16.1543 26.5553 16.1543 25.578 16.1543H24.182C23.2047 16.1543 22.7161 16.1543 22.3428 16.3445C22.0145 16.5118 21.7475 16.7787 21.5802 17.1071C21.39 17.4804 21.39 17.969 21.39 18.9463V19.6443M23.135 24.443V28.8055M26.625 24.443V28.8055M17.0275 19.6443H32.7325M30.9875 19.6443V29.4163C30.9875 30.8822 30.9875 31.6152 30.7022 32.1751C30.4513 32.6676 30.0509 33.0681 29.5583 33.319C28.9984 33.6043 28.2655 33.6043 26.7995 33.6043H22.9605C21.4946 33.6043 20.7616 33.6043 20.2017 33.319C19.7092 33.0681 19.3088 32.6676 19.0578 32.1751C18.7725 31.6152 18.7725 30.8822 18.7725 29.4163V19.6443" stroke="#D92D20" stroke-width="1.745" stroke-linecap="round" stroke-linejoin="round"/>
</svg>
