<svg width="26" height="26" viewBox="0 0 26 26" fill="none" xmlns="http://www.w3.org/2000/svg">
<path d="M8.4312 2.16016H17.511C20.97 2.16016 23.7804 4.97057 23.7804 8.42955V17.5094C23.7804 19.1721 23.1199 20.7667 21.9441 21.9425C20.7684 23.1182 19.1737 23.7787 17.511 23.7787H8.4312C4.97222 23.7787 2.1618 20.9683 2.1618 17.5094V8.42955C2.1618 6.7668 2.82233 5.17216 3.99807 3.99642C5.17381 2.82068 6.76845 2.16016 8.4312 2.16016ZM8.21501 4.32202C7.18296 4.32202 6.19318 4.732 5.46341 5.46176C4.73364 6.19153 4.32366 7.18131 4.32366 8.21336V17.7255C4.32366 19.8766 6.06396 21.6169 8.21501 21.6169H17.7272C18.7592 21.6169 19.749 21.2069 20.4788 20.4771C21.2086 19.7474 21.6185 18.7576 21.6185 17.7255V8.21336C21.6185 6.06231 19.8782 4.32202 17.7272 4.32202H8.21501ZM18.646 5.94341C19.0043 5.94341 19.348 6.08576 19.6014 6.33916C19.8548 6.59255 19.9971 6.93622 19.9971 7.29457C19.9971 7.65292 19.8548 7.9966 19.6014 8.24999C19.348 8.50338 19.0043 8.64573 18.646 8.64573C18.2876 8.64573 17.944 8.50338 17.6906 8.24999C17.4372 7.9966 17.2948 7.65292 17.2948 7.29457C17.2948 6.93622 17.4372 6.59255 17.6906 6.33916C17.944 6.08576 18.2876 5.94341 18.646 5.94341ZM12.9711 7.5648C14.4045 7.5648 15.7792 8.13422 16.7928 9.14779C17.8063 10.1614 18.3757 11.536 18.3757 12.9695C18.3757 14.4029 17.8063 15.7775 16.7928 16.7911C15.7792 17.8047 14.4045 18.3741 12.9711 18.3741C11.5377 18.3741 10.163 17.8047 9.14944 16.7911C8.13587 15.7775 7.56645 14.4029 7.56645 12.9695C7.56645 11.536 8.13587 10.1614 9.14944 9.14779C10.163 8.13422 11.5377 7.5648 12.9711 7.5648ZM12.9711 9.72666C12.1111 9.72666 11.2862 10.0683 10.6781 10.6765C10.07 11.2846 9.72831 12.1094 9.72831 12.9695C9.72831 13.8295 10.07 14.6543 10.6781 15.2624C11.2862 15.8706 12.1111 16.2122 12.9711 16.2122C13.8311 16.2122 14.656 15.8706 15.2641 15.2624C15.8722 14.6543 16.2139 13.8295 16.2139 12.9695C16.2139 12.1094 15.8722 11.2846 15.2641 10.6765C14.656 10.0683 13.8311 9.72666 12.9711 9.72666Z" fill="black"/>
</svg>
