<svg width="28" height="28" viewBox="0 0 28 28" fill="none" xmlns="http://www.w3.org/2000/svg">
<path d="M22.24 13.0781H6.56001C5.32289 13.0781 4.32001 14.0989 4.32001 15.3581V23.3381C4.32001 24.5973 5.32289 25.6181 6.56001 25.6181H22.24C23.4771 25.6181 24.48 24.5973 24.48 23.3381V15.3581C24.48 14.0989 23.4771 13.0781 22.24 13.0781Z" stroke="url(#paint0_linear_451_232)" stroke-opacity="0.7" stroke-width="2.27243" stroke-linecap="round" stroke-linejoin="round"/>
<path d="M8.80002 13.0784V8.51836C8.80002 7.00663 9.39002 5.55681 10.4402 4.48785C11.4904 3.41889 12.9148 2.81836 14.4 2.81836C15.8852 2.81836 17.3096 3.41889 18.3598 4.48785C19.41 5.55681 20 7.00663 20 8.51836V13.0784" stroke="url(#paint1_linear_451_232)" stroke-opacity="0.7" stroke-width="2.27243" stroke-linecap="round" stroke-linejoin="round"/>
<defs>
<linearGradient id="paint0_linear_451_232" x1="14.4" y1="13.0781" x2="14.4" y2="25.6181" gradientUnits="userSpaceOnUse">
<stop stop-color="#C729BC"/>
<stop offset="1" stop-color="#33209C"/>
</linearGradient>
<linearGradient id="paint1_linear_451_232" x1="14.4" y1="2.81836" x2="14.4" y2="13.0784" gradientUnits="userSpaceOnUse">
<stop stop-color="#C729BC"/>
<stop offset="1" stop-color="#33209C"/>
</linearGradient>
</defs>
</svg>
