<?xml version="1.0" standalone="no"?>
<!DOCTYPE svg PUBLIC "-//W3C//DTD SVG 20010904//EN"
 "http://www.w3.org/TR/2001/REC-SVG-20010904/DTD/svg10.dtd">
<svg version="1.0" xmlns="http://www.w3.org/2000/svg"
 width="1070.000000pt" height="284.000000pt" viewBox="0 0 1070.000000 284.000000"
 preserveAspectRatio="xMidYMid meet">

<g transform="translate(0.000000,284.000000) scale(0.100000,-0.100000)"
fill="#000000" stroke="none">
<path d="M1409 2162 c-54 -35 -235 -222 -350 -363 -98 -119 -279 -358 -286
-376 -4 -9 -38 -12 -132 -10 -120 2 -129 1 -183 -26 -49 -24 -98 -74 -98 -101
0 -3 68 -6 151 -6 135 0 150 -2 145 -16 -3 -9 -35 -62 -70 -118 -148 -237
-244 -453 -231 -523 7 -37 59 -103 81 -103 8 0 28 32 46 73 40 89 209 428 280
559 50 92 55 98 85 98 52 0 267 -30 276 -39 4 -4 1 -64 -8 -132 -13 -99 -14
-140 -6 -204 20 -150 48 -201 126 -231 39 -15 53 -15 99 -5 109 24 219 127
299 280 40 75 46 94 37 111 -6 11 -14 20 -18 20 -4 0 -27 -35 -52 -77 -50 -85
-138 -186 -181 -209 -48 -25 -87 -18 -109 18 -30 49 -34 122 -15 270 38 309
177 799 281 995 19 36 32 68 29 73 -13 20 -101 70 -125 70 -14 0 -46 -13 -71
-28z m-39 -168 c0 -4 -20 -57 -44 -118 -54 -138 -118 -333 -147 -451 -12 -49
-25 -93 -29 -98 -6 -7 -245 45 -256 56 -8 7 130 218 234 357 113 151 242 286
242 254z"/>
<path d="M3300 2175 c-68 -13 -305 -86 -316 -98 -9 -9 19 -44 48 -62 28 -16
31 -16 131 28 113 50 184 74 194 64 3 -4 -22 -73 -57 -154 -101 -237 -158
-378 -217 -538 -87 -235 -254 -732 -267 -790 -9 -42 21 -87 76 -114 54 -26 85
-27 92 -4 15 51 196 685 196 689 0 2 6 4 14 4 8 0 18 -10 22 -22 11 -37 120
-222 210 -360 176 -268 306 -398 397 -398 46 0 99 29 115 64 10 23 7 27 -41
64 -78 59 -201 176 -285 272 -72 82 -342 475 -342 499 0 6 15 11 33 12 86 1
290 33 382 60 94 28 215 92 275 146 29 26 60 67 76 101 24 49 28 69 28 147 0
72 -5 100 -23 142 -45 102 -177 198 -327 238 -84 23 -318 29 -414 10z m447
-100 c86 -42 127 -91 144 -173 24 -118 -20 -254 -108 -332 -56 -49 -184 -114
-268 -135 -75 -19 -262 -41 -271 -32 -4 4 19 85 51 179 93 279 199 531 226
540 35 12 159 -15 226 -47z"/>
<path d="M5109 2170 c-80 -42 -360 -355 -572 -642 -48 -64 -92 -118 -99 -120
-6 -2 -41 0 -77 4 -129 17 -251 -19 -291 -84 -11 -18 -20 -36 -20 -40 0 -5 68
-8 150 -8 83 0 150 -3 150 -8 0 -4 -11 -23 -23 -42 -99 -146 -229 -390 -266
-498 -24 -70 -26 -103 -10 -135 16 -30 60 -77 73 -77 6 0 58 97 116 216 57
119 140 284 185 366 l80 150 85 -7 c47 -3 117 -12 155 -18 81 -14 75 4 56
-172 -26 -234 22 -384 133 -415 40 -11 53 -10 116 9 64 20 79 30 144 94 68 67
122 148 159 239 14 33 14 38 -2 52 -15 14 -20 9 -61 -61 -53 -89 -147 -195
-189 -212 -43 -18 -81 -10 -105 22 -19 26 -21 41 -20 150 2 140 40 367 89 537
7 25 27 95 44 155 41 148 114 346 157 423 19 35 32 67 29 72 -13 20 -101 70
-124 70 -14 -1 -42 -9 -62 -20z m-49 -174 c0 -2 -15 -41 -33 -87 -63 -157
-145 -411 -167 -514 -17 -81 -11 -79 -149 -47 -67 16 -124 32 -127 35 -9 9
150 251 254 387 95 123 222 252 222 226z"/>
<path d="M5874 2176 c-112 -35 -261 -162 -314 -269 -40 -81 -42 -161 -5 -205
14 -17 40 -33 58 -37 17 -4 39 -8 48 -11 14 -4 15 5 11 71 -4 66 -1 85 23 146
31 79 97 175 144 209 39 27 89 31 104 9 11 -18 4 -43 -123 -409 -66 -193 -85
-230 -117 -230 -31 0 -113 -52 -128 -80 -24 -46 -20 -50 50 -50 41 0 65 -4 65
-11 0 -6 -27 -97 -59 -203 -76 -243 -129 -450 -146 -570 l-8 -49 27 7 c41 10
99 52 119 85 14 24 156 471 230 721 9 33 19 46 37 51 14 4 125 7 248 8 254 1
238 9 202 -95 -12 -32 -41 -135 -66 -229 -40 -150 -46 -186 -50 -305 -5 -123
-4 -138 15 -167 23 -36 58 -57 113 -67 l36 -7 -5 78 c-8 115 40 431 111 732
12 55 12 55 62 66 61 14 102 35 133 69 l24 26 -86 0 c-102 0 -100 -3 -66 113
11 40 30 104 41 142 20 72 133 430 145 461 5 15 2 16 -28 11 -83 -16 -128
-116 -303 -672 l-13 -40 -66 0 c-355 2 -417 5 -417 21 0 8 23 88 51 177 27 89
64 207 81 262 45 148 39 224 -18 245 -35 14 -111 11 -160 -4z"/>
<path d="M8040 2184 c-132 -20 -266 -70 -370 -139 -148 -99 -227 -241 -187
-337 19 -44 52 -68 107 -75 45 -6 44 -7 23 70 -7 28 17 129 45 180 110 204
443 289 682 175 252 -121 297 -497 109 -905 -131 -287 -359 -509 -589 -574
-63 -18 -201 -26 -234 -13 -22 8 -21 19 19 179 41 162 53 206 150 520 46 147
152 443 211 588 24 59 44 114 44 121 0 19 -56 37 -89 30 -38 -9 -78 -50 -118
-122 -67 -119 -364 -1055 -391 -1234 -11 -71 -2 -87 71 -125 49 -26 60 -28
182 -27 156 0 238 19 390 93 340 166 585 497 639 864 21 141 20 188 -5 310
-37 183 -122 303 -262 371 -40 20 -101 40 -137 46 -61 9 -235 12 -290 4z"/>
<path d="M9195 2176 c-168 -36 -255 -128 -255 -269 0 -90 33 -135 116 -161 20
-6 20 -3 16 78 -7 140 30 219 122 262 105 49 222 28 609 -109 54 -19 100 -37
103 -40 10 -9 -117 -259 -202 -399 l-35 -58 -93 0 c-110 0 -196 -14 -250 -42
-48 -25 -63 -39 -76 -73 -18 -47 -16 -48 73 -40 189 17 239 20 250 13 20 -12
-204 -329 -330 -467 l-59 -65 -60 16 c-251 69 -414 40 -414 -72 0 -51 19 -88
64 -128 85 -74 231 -67 382 19 l52 29 53 -24 c280 -124 361 -149 484 -150 89
-1 105 2 143 24 65 37 159 187 105 165 -42 -16 -130 -35 -162 -35 -41 0 -184
25 -261 47 -119 32 -225 66 -234 74 -5 5 27 46 75 97 90 94 197 230 299 380
34 50 66 92 69 92 192 11 250 28 288 86 14 22 13 22 -97 29 -60 4 -113 11
-116 16 -2 5 12 35 32 66 21 32 80 141 132 243 91 177 97 187 154 230 l60 45
-113 6 c-94 5 -152 16 -334 63 -215 57 -224 58 -375 62 -103 2 -175 -1 -215
-10z m-218 -1412 c98 -34 111 -43 86 -62 -47 -35 -115 -62 -158 -62 -98 0
-168 77 -118 132 24 26 98 23 190 -8z"/>
<path d="M2225 2165 c-95 -17 -205 -57 -265 -95 -168 -108 -223 -299 -112
-392 32 -26 99 -54 108 -45 3 3 -2 26 -10 51 -9 27 -16 79 -16 124 1 108 26
157 104 196 52 27 69 30 177 34 74 3 119 1 119 -5 0 -6 -14 -41 -32 -79 -17
-38 -68 -161 -113 -274 l-81 -205 -69 -8 c-135 -15 -192 -42 -225 -108 -12
-22 -19 -43 -17 -45 2 -3 59 1 126 7 67 6 124 9 126 7 1 -1 -25 -77 -59 -168
-161 -428 -172 -622 -37 -660 77 -21 75 -23 89 103 16 149 52 299 163 668 l20
66 122 7 c155 9 234 22 269 48 47 33 36 45 -49 51 -141 10 -288 28 -294 35 -7
7 89 304 144 448 45 118 30 111 208 91 205 -22 256 -8 364 102 54 56 55 55
-60 41 -60 -7 -125 -6 -255 5 -209 18 -350 18 -445 0z"/>
</g>
</svg>
