<svg width="198" height="258" viewBox="0 0 198 258" fill="none" xmlns="http://www.w3.org/2000/svg">
<path d="M86.2134 100.277H139.879L141.769 100.403V103.175L141.643 107.584L127.03 107.458L129.801 113.001L131.187 115.898L132.825 119.174L134.21 122.071L136.73 127.236L139.627 133.031L141.013 135.929L142.525 138.952L143.911 141.85L147.438 148.904L148.824 151.802L149.328 152.684L149.202 153.188L148.572 153.565L145.674 155.077L142.525 156.337L138.872 157.471L136.226 157.975L131.565 158.604H129.927L129.171 157.597L127.408 154.069L126.022 151.172L123.502 146.007L121.361 141.472L120.227 139.33L118.841 136.433L116.826 132.401L115.44 129.504L114.306 127.11L113.928 126.48L113.676 126.354L113.298 127.488L111.787 130.638L110.527 133.031L109.519 135.173L107.125 139.96L105.74 142.857L103.346 147.645L101.96 150.542L100.323 153.943L98.937 156.841L98.6851 157.471V157.723L100.701 158.227L104.858 159.234L109.141 160.242L114.306 161.25L119.975 162.006L123.25 162.258H131.817L135.47 161.88L139.375 161.124L143.659 159.864L146.178 158.856L150.083 156.967L153.107 155.203L155.375 153.565L157.012 152.18L158.524 150.794L159.532 149.912L161.547 147.896H161.799L161.547 149.282L160.162 152.18L158.398 155.203L156.886 157.471L155.123 159.99L153.989 161.502L152.855 162.888L151.595 164.273L150.965 165.029H150.713L150.461 165.533L149.202 166.793L147.438 168.179L145.17 169.816L143.281 170.95L141.265 171.958L138.872 172.966L136.73 173.722L132.825 174.729L129.045 175.359L125.266 175.611H123.628L120.227 175.485L115.566 175.107L110.779 174.478L105.74 173.596L96.4175 171.454L86.5913 169.187L82.938 168.305L76.5132 167.045L68.4507 165.785L64.7974 165.407H57.8687L54.7192 165.659L51.5698 166.163L47.1606 167.171L43.8853 168.179L41.2397 169.312L40.7358 169.187L43.5073 165.029L45.145 163.014L46.5308 161.502L48.2944 159.738L49.6802 158.604L51.4438 157.345L53.9634 155.833L56.3569 154.699L59.7583 153.565L62.1519 153.062L65.3013 152.684L66.939 152.558H70.8442L75.3794 152.936L78.2769 153.313L78.5288 152.684L83.1899 143.361L84.5757 140.464L86.7173 136.181L88.103 133.283L89.7407 130.008L91.0005 127.362L94.6538 120.056L96.0396 117.158L97.4253 114.387L99.063 110.859L100.449 108.214L100.953 107.458L96.4175 107.584H93.646L86.2134 107.458V100.277Z" fill="#A62A82"/>
<path d="M113.928 64.375L114.558 64.501L116.196 65.7607L117.33 66.6426L118.967 68.0283L120.227 69.1621L122.873 71.8076L124.006 73.1934L125.266 74.7051L126.274 76.0908L127.408 77.6025L127.282 78.4844L126.148 79.7441L125.266 81.5078L125.014 82.2637L124.888 83.6494L125.266 85.5391L125.896 87.0508L126.778 88.1846L127.786 89.0664L129.171 89.5703H131.565L132.825 89.0664L133.581 88.5625L134.714 87.3027L135.596 85.4131L135.722 84.7832V82.2637L135.218 80.8779L134.084 78.9883V77.9805L135.344 75.9648L136.982 74.2012L138.368 73.0674L140.509 71.5557L143.155 70.1699L146.178 69.0361L148.446 68.5322H149.454L149.202 69.2881L147.942 71.6816L146.934 73.6973L145.674 76.5947L144.163 81.0039L143.029 85.5391L142.399 88.9404L142.021 93.3496L141.769 97.7588L141.643 98.5146H86.2134L86.0874 98.3887L85.7095 91.46L85.3315 88.1846L84.4497 84.2793L83.3159 80.1221L81.9302 75.9648L80.7964 73.3193L78.9067 69.4141L78.4028 68.5322V68.2803L80.9224 68.7842L83.8198 69.666L85.9614 70.6738L87.9771 71.9336L89.9927 73.5713L92.1343 75.7129L93.2681 77.2246L93.8979 78.3584V78.9883L93.0161 80.248L92.2603 81.7598L92.0083 82.7676V84.1533L92.5122 86.043L93.394 87.6807L94.1499 88.5625L95.4097 89.3184L97.0474 89.6963L98.811 89.5703L99.9448 89.1924L101.205 88.0586L102.086 86.6729L102.716 85.2871L102.842 84.5312V82.5156L102.212 80.626L101.205 79.2402L100.575 78.4844L100.449 78.1064L101.205 76.5947L102.716 74.5791L103.724 73.3193L105.236 71.6816L106.118 70.7998L107 69.792L108.889 68.0283L109.897 67.1465L111.661 65.7607L113.928 64.375Z" fill="#923A7A"/>
<path d="M86.2134 100.277H139.879L141.769 100.403V103.175L141.643 107.584L127.03 107.458L129.801 113.001L131.187 115.898L132.825 119.174L134.21 122.071L136.73 127.236L139.627 133.031L141.013 135.929L142.525 138.952L143.911 141.85L147.438 148.904L148.824 151.802L149.328 152.684L149.202 153.188L148.572 153.565L145.674 155.077L142.525 156.337L138.872 157.471L136.226 157.975L131.565 158.604H129.927L129.171 157.597L127.408 154.069L126.022 151.172L123.502 146.007L121.361 141.472L120.227 139.33L118.841 136.433L116.826 132.401L115.44 129.504L114.306 127.11L113.928 126.48L114.054 125.473L115.44 122.575L116.448 120.56L118.589 116.15L119.219 114.765L120.227 112.623L121.613 109.348L121.991 108.088L122.117 107.206L119.597 107.08H109.645L103.598 107.206L101.583 107.332L101.079 107.458L96.4175 107.584H93.646L86.2134 107.458V100.277Z" fill="#793284"/>
<path d="M54.5933 170.949H61.144L65.5532 171.327L69.9624 171.957L74.8755 172.839L79.0327 173.721L83.6938 174.729L89.1108 175.988L94.9058 177.248L100.323 178.256L104.858 178.886L107.629 179.138L111.535 179.264L115.44 179.138L117.582 179.012L119.723 178.76H121.109L120.479 179.39L119.471 180.02L116.07 181.783L113.424 182.917L110.905 183.925L108.007 184.807L104.732 185.562L102.464 185.94L99.8188 186.192L96.6694 186.318H94.5278L89.8667 186.066L84.0718 185.437L75.7573 184.177L70.2144 183.295L62.2778 182.287L57.8687 181.909H50.688L47.1606 182.287L43.5073 182.917L40.2319 183.673L36.5786 184.807L32.9253 186.318L29.9019 187.83L27.2563 189.342L24.6108 191.105L24.1069 191.357H23.729L23.981 190.602L25.6187 188.334L27.0044 186.192L28.2642 184.555L29.3979 183.169L31.1616 181.279L33.1772 179.39L34.9409 178.004L37.2085 176.366L39.0981 175.232L41.2397 174.099L44.7671 172.713L47.0347 172.083L50.0581 171.453L52.7036 171.075L54.5933 170.949Z" fill="#A62A82"/>
<path d="M155.752 165.91L156.13 166.036L157.138 168.556L158.524 171.579L161.547 177.626L164.445 183.547L165.831 186.444L168.602 192.113L171.625 198.16L172.885 201.058V201.31H163.437L151.091 201.184L150.335 200.932L148.824 197.656L147.06 194.003L145.674 191.105L143.911 187.704L142.021 183.925L140.383 180.271L138.872 177.248L139.879 176.744L142.273 175.736L145.548 173.973L147.564 172.713L149.706 171.201L151.343 169.815L152.351 168.934L153.611 167.8L154.997 166.414L155.752 165.91Z" fill="#A62A81"/>
<path d="M128.919 114.008L129.423 114.134L129.927 115.016L130.305 116.149L130.683 117.031L131.061 117.661L131.313 118.669L131.565 118.795L132.069 119.803L133.203 122.196L133.329 122.826L133.707 122.952L133.581 123.33L133.958 123.456V123.834L134.21 123.96L134.462 124.716L135.218 125.598L135.092 124.968L133.707 122.07L132.951 120.433L133.329 120.307L134.966 123.582L136.352 126.479L139.627 133.03L141.013 135.928L142.525 138.951L143.911 141.849L147.438 148.903L148.824 151.801L149.328 152.683L149.202 153.187L148.572 153.564L145.674 155.076L142.525 156.336L138.872 157.47L136.226 157.974L131.565 158.604H129.927L129.171 157.596L127.408 154.068L126.022 151.171L125.518 150.163V149.659L126.148 149.785L126.904 151.171V150.919L126.526 149.785L126.148 149.155V148.903H125.77L125.014 147.266L125.14 146.888H124.888L124.636 146.258V145.628H124.384L124.132 144.62L123.754 144.494L123.125 142.982V142.604H122.873L122.621 141.471H122.369L122.243 140.589L122.999 141.093L123.125 140.085L123.376 139.959L123.628 140.715H123.88V140.463L124.132 140.211L124.51 139.581L124.132 139.077L124.636 138.951L124.762 138.699L125.266 139.581V139.959L125.896 140.085V140.463H126.148L126.526 141.723L127.156 142.101L127.282 142.73L127.534 142.604L127.912 142.227L128.164 142.604V142.856L128.542 142.982V143.612H129.423V143.36L129.045 143.234L129.423 142.856H129.675L129.549 142.101L129.675 141.471H129.927L129.801 139.455L129.927 139.077H129.675V138.699H129.423V138.447H129.045L129.171 137.439L128.667 136.81V136.306L129.675 136.558L130.305 136.306V136.81L130.935 137.062V136.684H131.187L131.061 135.55L131.313 135.172H132.069L132.195 134.794L131.313 134.29L131.565 133.786L131.691 133.912V133.66H132.195L131.943 133.534L131.817 132.904L131.565 132.526L131.691 131.519L131.439 130.889L131.565 130.385H131.313V130.133L130.305 130.259V129.881L130.179 130.385L130.305 131.015V132.022H130.053L129.927 133.03L130.179 133.786L129.927 134.542L129.675 135.172L129.801 135.928L129.675 136.306L129.423 136.432V136.18H129.171V135.928L128.919 135.802L129.045 135.424L128.793 135.298V135.046H128.542L128.416 135.424L127.912 135.298L128.038 135.046L127.66 134.92L127.408 133.66L127.282 132.652L127.156 131.519L127.03 131.267L127.156 130.763H127.408V130.511H127.156L127.03 129.251L127.282 128.369V126.605L127.408 125.724L127.786 124.968L128.164 124.464L128.793 124.716L128.919 125.22L129.045 125.094L130.053 124.968L130.179 124.716H129.927L129.801 124.212V123.456L129.297 123.708H128.667L128.416 123.33L128.667 122.574L128.542 122.322L128.038 122.196L128.29 120.937H128.542L128.416 119.929H128.164L127.786 119.299V118.039L127.912 116.653V116.023H128.164V115.142L128.038 114.764L128.542 114.512H128.919V114.008Z" fill="#A62A82"/>
<path d="M113.928 64.375L114.558 64.501L116.196 65.7607L117.33 66.6426L118.967 68.0283L120.227 69.1621L122.873 71.8076L124.006 73.1934L125.266 74.7051L126.274 76.0908L127.408 77.6025L127.282 78.4844L126.148 79.7441L125.644 80.752H125.266L124.888 81.1299L124.006 81.2559L122.999 81.6338L122.873 82.0117L121.487 82.5156L120.983 82.3896H119.975L118.589 82.8936H117.582V82.6416L117.204 82.7676L115.44 82.6416L114.558 83.0195H113.298L112.794 83.2715L112.417 83.0195H111.409L110.905 82.7676L110.023 83.0195L108.511 83.6494H108.007L107.881 83.3975L106.748 83.7754L106.118 83.6494L105.614 83.9014L105.488 84.1533L104.48 84.2793L103.976 85.0352L103.472 85.665L102.968 85.917L102.59 85.791L102.842 84.5312V82.5156L102.212 80.626L101.205 79.2402L100.575 78.4844L100.449 78.1064L101.205 76.5947L102.716 74.5791L103.724 73.3193L105.236 71.6816L106.118 70.7998L107 69.792L108.889 68.0283L109.897 67.1465L111.661 65.7607L113.928 64.375Z" fill="#B63771"/>
<path d="M58.4985 153.943H59.0024V154.195L59.2544 154.321L58.4985 154.825L57.2388 155.077L56.8608 155.581L56.231 155.455V155.203L54.7192 155.959H54.3413L55.3491 156.337L55.4751 156.085H57.1128L57.2388 155.959H59.2544L59.7583 156.085L59.8843 156.463V156.841L61.27 157.345V157.597L63.4116 157.849H63.7896L63.9155 157.597V157.975L64.4194 158.101L64.1675 158.227L64.9233 158.479L65.5532 158.73L65.4272 158.982L64.6714 158.856V159.234L65.3013 159.36V159.612L65.5532 159.738L65.6792 160.368L65.5532 160.62L66.687 160.242V160.62H66.939L67.0649 160.998L66.939 161.124H68.1987L68.9546 160.998L69.0806 161.376L68.7026 162.006L69.9624 161.754L70.4663 161.88L70.5923 162.384L70.9702 162.51L70.5923 163.014H70.8442V163.266H71.2222V163.77L70.5923 164.021L70.4663 164.525L70.2144 164.651L68.9546 164.399L68.8286 164.903L68.3247 164.777L67.6948 164.651H67.1909V164.903L68.9546 165.029L69.2065 165.155L69.3325 164.777L69.8364 164.903L69.9624 165.281L70.8442 164.777H70.9702H71.2222L71.4741 165.533L71.978 165.659H70.5923L71.978 165.911L72.9858 166.163V166.289H71.7261L67.4429 165.659L64.7974 165.407H57.8687L54.7192 165.659L51.5698 166.163L47.1606 167.171L43.8853 168.179L41.2397 169.312L40.7358 169.187L43.5073 165.029L45.145 163.014L46.5308 161.502L48.2944 159.738L49.6802 158.604L51.4438 157.345L53.9634 155.833L56.3569 154.699L58.4985 153.943Z" fill="#7A3284"/>
<path d="M78.4028 68.2793L80.9224 68.7832L83.8198 69.665L85.9614 70.6729L87.9771 71.9326L89.9927 73.5703L92.1343 75.7119L93.2681 77.2236L93.8979 78.3574V78.9873L93.0161 80.2471L92.5122 81.1289L91.6304 81.8848L91.1265 82.2627L90.3706 82.1367L90.2446 82.5146H89.9927V82.7666L89.6147 82.8926L89.2368 84.1523L88.6069 84.5303L88.355 85.0342L87.7251 85.2861L87.5991 85.5381L86.7173 85.6641L86.4653 86.042V87.1758L86.3394 88.9395L86.5913 90.9551L86.7173 92.8447L86.8433 93.2227L87.0952 97.6318L87.4731 97.5059L87.5991 97.2539H88.103V97.5059H88.355V97.7578L88.9849 97.6318L90.1187 97.7578H98.811L102.212 97.8838H110.149L111.283 97.7578H119.093L120.605 97.6318L126.022 97.7578L128.29 98.0098V98.2617L137.108 98.3877V98.5137H86.2134L86.0874 98.3877L85.7095 91.459L85.3315 88.1836L84.4497 84.2783L83.3159 80.1211L81.9302 75.9639L80.7964 73.3184L78.9067 69.4131L78.4028 68.5312V68.2793Z" fill="#A73872"/>
<path d="M50.0581 171.453H51.0659L50.814 171.957L51.3179 172.083V172.335L48.7983 172.587H48.4204V172.839H48.1685V173.091L47.4126 173.217L47.2866 173.973L46.9087 174.225L46.6567 174.729L46.5308 173.973L44.2632 174.225L43.8853 174.477L44.3892 174.603L44.2632 174.854H43.0034L43.5073 175.106L43.7593 175.61L43.5073 176.24V176.87L43.1294 176.996L42.2476 176.618L41.9956 176.744L42.6255 176.87L42.3735 177.374H42.1216L41.9956 177.626V177.374L41.7437 177.5L41.4917 178.13L41.8696 178.256V178.76L42.6255 178.634L42.8774 179.012H42.6255V179.39L42.4995 179.516L43.1294 179.264L44.7671 179.012L45.5229 178.886L45.7749 179.642L46.1528 179.516L46.2788 180.02L47.1606 179.894L47.6646 180.146V180.397L47.9165 180.523L47.2866 180.775L46.7827 180.901L45.9009 181.027V181.279L46.7827 181.153L47.9165 181.027L48.1685 181.153L48.2944 180.901V181.153L48.9243 180.901L50.0581 180.775L50.562 180.649L50.9399 181.027L49.0503 181.405L47.0347 181.657L46.7827 181.783L45.6489 181.909L46.0269 182.035L45.5229 182.539L41.7437 183.295L38.0903 184.303L34.9409 185.437L32.4214 186.57L29.9019 187.83L27.2563 189.342L24.6108 191.105L24.1069 191.357H23.729L23.981 190.602L25.6187 188.334L27.0044 186.192L28.2642 184.555L29.3979 183.169L31.1616 181.279L33.1772 179.39L34.9409 178.004L37.2085 176.366L39.0981 175.232L41.2397 174.099L44.7671 172.713L47.0347 172.083L50.0581 171.453Z" fill="#7B3284"/>
<path d="M148.446 68.5312H149.454L149.202 69.2871L147.942 71.6807L146.934 73.6963L145.674 76.5938L144.163 81.0029L143.533 83.3965L143.029 84.0264L142.399 84.1523L142.147 83.0186H141.517L141.013 83.1445L140.509 83.5225H139.501L138.872 83.9004L137.612 84.0264L137.234 84.2783L137.108 84.6562H136.856L136.604 85.2861L135.974 85.4121L135.722 85.2861V82.2627L135.218 80.877L134.084 78.9873V77.9795L135.344 75.9639L136.982 74.2002L138.368 73.0664L140.509 71.5547L143.155 70.1689L146.178 69.0352L148.446 68.5312Z" fill="#A83872"/>
<path d="M123.502 73.4453L124.51 73.8232L125.518 75.083L127.408 77.6025L127.282 78.4844L126.148 79.7441L125.644 80.752H125.266L124.888 81.1299L124.006 81.2559L122.999 81.6338L122.873 82.0117L121.487 82.5156L120.983 82.3896H119.975L118.589 82.8936H117.582V82.6416L117.204 82.7676L115.44 82.6416L114.558 83.0195H113.298L112.794 83.2715L112.417 83.0195H111.409L110.905 82.7676L110.023 83.0195L108.511 83.6494H108.007L107.881 83.3975L106.748 83.7754L106.118 83.6494L105.614 83.9014L105.488 84.1533L104.48 84.2793L103.976 85.0352L103.472 85.665L102.968 85.917L102.59 85.791L102.842 84.5312V82.5156L102.338 81.0039L102.464 80.5H102.716L102.338 79.4922L101.583 77.9805L101.708 76.9727L102.464 76.3428L102.716 75.7129H102.968V75.4609L103.724 75.083V76.3428L103.85 77.0986L104.984 76.9727V77.3506H105.866L106.118 77.7285L106.496 77.4766L107 77.6025L107.377 78.4844L108.007 78.6104L108.511 78.4844V78.8623L109.015 78.7363L109.519 79.2402H110.275V78.9883L111.157 78.7363H112.165L113.298 78.2324H113.676V77.9805L114.558 77.8545L115.188 77.7285L115.692 77.8545V78.1064L116.952 77.8545H117.204L118.463 78.1064H119.471L120.605 78.4844V78.7363L121.361 78.4844V78.2324H121.109V77.9805H121.361V77.6025L122.369 77.4766L122.873 77.7285L122.999 77.9805H123.25L123.376 77.4766L124.006 77.6025V76.9727H123.754L123.376 76.2168H124.258L124.384 75.7129L124.132 75.5869L124.258 75.4609L123.88 74.4531L123.502 73.8232V73.4453Z" fill="#A73872"/>
<path d="M161.547 147.896H161.799L161.547 149.282L160.162 152.18L158.398 155.203L156.886 157.471L155.123 159.99L153.989 161.502L152.855 162.888L151.595 164.273L150.965 165.029H150.713L150.461 165.533L149.202 166.793L147.438 168.179L145.17 169.816L143.281 170.95L141.265 171.958L138.872 172.966L137.234 173.596L136.73 173.47L136.982 172.966L138.62 172.462L139.627 171.958L140.383 171.706L142.273 170.824L143.281 170.32H143.533V170.068L144.541 169.564H144.792L144.918 169.312L146.43 168.179L147.312 167.549L147.816 167.045H148.068L148.194 166.667L148.572 166.289H148.824L148.95 165.911L149.706 165.281L150.083 164.651L150.587 164.399L150.713 163.77L151.091 163.644L151.217 163.392L151.721 163.014L151.595 162.636L151.847 162.384L151.595 161.628V161.124H151.343L151.217 161.502L150.083 162.006L149.706 162.384L148.95 162.762L148.698 163.14H147.564L147.312 162.888L147.69 162.132L147.942 162.006L148.068 161.628L148.32 161.502L148.698 160.368L148.95 160.242L148.698 159.36L148.446 158.856H148.824L149.076 159.108L149.328 158.982L149.202 158.353V157.849H149.454V157.597L150.209 157.219L151.091 156.589V156.337L153.107 155.203L155.375 153.565L157.012 152.18L158.524 150.794L159.532 149.912L161.547 147.896Z" fill="#DE2E89"/>
<path d="M78.4028 68.2793L80.9224 68.7832L83.8198 69.665L85.9614 70.6729L87.9771 71.9326L89.9927 73.5703L90.4966 74.2002L90.2446 74.4521L90.4966 75.208L90.7485 76.3418L89.9927 76.7197L89.6147 77.0977H89.1108L89.2368 76.5938V76.4678L88.355 76.7197V76.4678L87.8511 76.2158L87.5991 75.9639L87.0952 75.8379L86.9692 76.3418H86.0874L85.8354 75.8379L86.0874 75.5859L85.7095 75.208L85.5835 74.9561L84.9536 75.082L85.0796 75.5859L85.3315 75.8379L85.2056 76.3418L85.4575 76.9717H85.8354V77.3496L85.4575 77.4756V77.8535H85.0796L84.9536 78.4834L84.5757 78.7354H84.1978H83.9458L83.6938 78.3574L83.5679 77.4756H83.3159L83.8198 79.4912L84.0718 79.9951L84.5757 81.7588L84.8276 83.2705V83.5225L84.1978 83.2705L83.064 79.3652L81.9302 75.9639L80.7964 73.3184L78.9067 69.4131L78.4028 68.5312V68.2793Z" fill="#B63771"/>
<path d="M85.8354 175.359L86.9692 175.485L93.1421 176.871L99.4409 178.131L104.858 178.887L107.629 179.139L111.535 179.265L115.44 179.139L117.582 179.013L119.723 178.761H121.109L120.479 179.391L119.471 180.021L116.07 181.784L113.424 182.918L110.905 183.926L108.007 184.808L104.732 185.563L102.464 185.941L99.8188 186.193L96.6694 186.319H94.5278L91.5044 186.193V186.067L98.811 185.941L100.197 185.815L100.071 185.563L100.323 185.438H101.079L101.457 185.815L101.583 185.438L103.094 185.06L104.606 184.808L106.37 184.304L107.377 183.926L107.629 183.674L108.385 183.548L108.889 183.044L107.755 183.17L107.629 183.296H106.748V182.918H105.992V183.17L104.984 183.296V183.044L104.606 182.918L104.48 182.54L104.228 182.288H104.48V182.036L105.614 181.91L105.74 181.406L106.37 181.154L106.874 180.902L107 180.272L107.251 179.895L108.133 179.769L108.259 179.643L104.48 179.265L102.968 179.139L102.842 179.013H101.708L101.079 178.761L97.4253 178.257L94.4019 177.627L93.2681 177.375L90.2446 176.871L88.6069 176.367L86.3394 175.863L86.2134 175.611L85.8354 175.359Z" fill="#DE2E89"/>
<path d="M166.586 188.84L166.964 189.218L167.342 189.848L167.72 190.352L171.625 198.162L172.885 201.06V201.312H163.437L151.091 201.186L150.335 200.934L149.832 199.8L149.958 199.17L150.335 199.044V199.296H150.587L150.965 199.926L151.217 200.178L152.225 200.304H165.201L165.831 200.178L166.208 199.926L166.334 199.548H167.216V199.296H166.964L166.46 198.666H165.957L166.083 198.162L165.831 198.036L165.579 198.54L165.201 198.414V197.91H165.453L165.705 197.406L166.334 196.776H166.712L166.586 197.028L167.09 196.65L166.964 196.398L167.468 195.895H167.216V194.761L167.846 194.635L167.972 194.887L168.35 194.005L168.098 193.879V193.627L167.72 192.493L167.216 191.233L166.964 190.729L166.838 190.1L166.964 189.722L166.712 189.596L166.586 188.84Z" fill="#DE2F89"/>
<path d="M148.446 68.5312H149.454L149.202 69.2871L147.942 71.6807L147.312 72.8145H146.808V72.5625L146.178 72.6885V73.3184L145.8 74.2002H145.548L145.296 74.9561H145.044L144.792 75.46L144.163 75.9639L143.785 76.3418L143.281 76.4678L142.651 76.7197L142.399 76.8457H141.139L141.013 76.5938L140.887 76.2158H139.124L138.242 76.3418V76.5938L137.738 76.3418L137.36 76.0898H137.108L137.234 75.334L137.486 75.208L137.99 74.3262L138.494 73.6963V73.3184L138.242 73.1924L139.753 72.0586L141.391 71.0508L143.785 69.917L146.178 69.0352L148.446 68.5312Z" fill="#B63771"/>
<path d="M85.5835 88.3086L85.8354 88.5605L86.0874 88.4346L86.3394 89.1904L86.5913 90.9541L86.7173 92.8438L86.8433 93.2217L87.0952 97.6309L87.4731 97.5049L87.5991 97.2529H88.103V97.5049H88.355V97.7568L88.9849 97.6309L90.1187 97.7568H98.811L102.212 97.8828H110.149L111.283 97.7568H119.093L120.605 97.6309L126.022 97.7568L128.29 98.0088V98.2607L137.108 98.3867V98.5127H86.2134L86.0874 98.3867L85.7095 91.458L85.4575 89.0645V88.4346L85.5835 88.3086Z" fill="#B72B84"/>
<path d="M37.3345 191.105H38.2163L38.3423 191.609L37.9644 192.239L38.0903 193.121L39.3501 197.782L39.854 199.294V199.546H38.0903L37.5864 198.916L37.3345 197.152H35.4448L34.311 198.412L33.6812 199.168L33.3032 199.42H31.9175L31.5396 199.042L31.4136 198.79L31.5396 197.656L31.7915 197.152H32.9253L33.0513 197.53L34.0591 197.152L34.689 196.396H34.9409L34.563 195.515L34.0591 195.389L34.311 195.893V196.396H34.0591V196.019L33.3032 195.767L33.0513 195.515V194.885L33.9331 194.255L35.1929 194.003L35.5708 193.499H35.8228L35.0669 192.113V191.483L37.2085 191.231L37.3345 191.105Z" fill="#DE2E89"/>
<path d="M114.306 190.602H115.818L116.574 190.979L116.952 191.609L117.204 192.869L116.7 193.247L115.314 193.751L115.062 194.003L114.936 194.633L114.306 194.381L113.424 195.389L113.172 196.019V197.026L113.802 197.53L114.432 197.656L115.44 197.278L115.566 196.774L115.44 195.893L115.566 195.137L116.448 194.759H117.33L117.456 194.885L117.33 197.782L116.952 198.538L115.944 199.168L114.936 199.42L113.424 199.294L112.417 198.664L111.661 197.656L111.409 196.396L111.661 195.389L112.291 194.759L113.046 194.507V193.625L112.668 192.869L112.542 191.987L113.046 191.231L114.306 190.602Z" fill="#A92B82"/>
<path d="M96.7954 191.988L97.4253 192.114L97.8032 193.248L98.937 195.138L99.063 195.642L98.811 196.271L98.3071 196.649L97.5513 197.027L97.4253 197.153V197.909L98.4331 198.413L98.6851 198.665H99.063L99.189 200.177L98.6851 200.933L97.8032 201.437L96.6694 201.562L95.7876 201.059V200.933L96.9214 200.555L97.4253 200.303L97.6772 199.799L97.5513 199.043L97.0474 198.539L96.9214 198.917L95.7876 199.421L95.1577 199.673L94.9058 199.547L94.7798 198.791L95.0317 198.287V197.657L94.5278 197.027L94.2759 196.397L94.5278 194.886L94.7798 194.256H95.0317L95.2837 193.752L95.9136 193.374L96.5435 193.248L96.2915 192.492L96.7954 191.988Z" fill="#AE2C82"/>
<path d="M67.4429 191.105L70.5923 191.357L70.7183 191.861L70.8442 193.499L71.3481 194.759L71.7261 195.515L71.8521 196.271V197.53L71.4741 198.79L71.2222 199.042L70.5923 198.916L70.4663 198.79L70.2144 196.9L69.4585 194.381V194.129H69.2065L69.0806 196.9L68.5767 198.916L68.3247 199.294H66.813L66.4351 199.042L66.3091 197.782L66.687 197.404L67.8208 197.278L67.9468 196.648V192.491L67.5688 191.861L67.4429 191.105Z" fill="#A72A81"/>
<path d="M123.502 190.729H124.384L126.904 191.484L127.408 191.736L127.534 192.492L127.03 193.5L126.526 194.004L125.77 193.878L125.518 192.996L125.77 192.366L125.392 191.862L124.258 191.736L123.628 192.114L123.376 192.996V193.752L123.754 194.256L124.384 194.508V194.76L124.888 194.886L125.14 195.39V196.146L124.888 196.397H124.132L123.25 195.39L123.125 195.642V197.027L123.628 198.413L124.132 198.791L124.006 199.295L123.754 199.421L121.487 199.295L121.109 199.043V198.791L121.487 198.413L121.613 198.161V192.996L121.487 192.492L121.109 192.366L121.235 191.736L122.369 191.358L123.125 190.854L123.502 190.729Z" fill="#A92A82"/>
<path d="M49.5542 193.625H51.0659L51.9478 194.003L52.4517 195.137L52.8296 197.53L53.0815 198.286V198.916L52.7036 199.294L51.5698 199.42H49.4282L48.7983 199.042L48.5464 198.538V197.53L48.9243 195.767V193.877L49.5542 193.625Z" fill="#BD3576"/>
<path d="M54.5933 190.98H55.4751L55.7271 191.358L55.6011 193.374L55.7271 193.5L57.4907 193.626L58.1206 194.256L58.3726 194.886L58.4985 195.642V199.043L58.2466 199.421H57.1128L56.6089 199.169V198.917L57.1128 198.791L56.9868 196.397L56.7349 195.138L56.3569 194.76V194.508L55.7271 194.76V199.169L55.3491 199.547L54.4673 199.421L54.3413 199.295L54.0894 191.484L54.5933 190.98Z" fill="#B73674"/>
<path d="M138.368 193.5L139.375 193.752L139.879 194.382L140.131 195.264L140.005 196.271L139.879 196.523V197.909L139.501 198.791L138.998 199.295L138.746 199.421H137.36L136.604 198.791L136.226 197.909V195.39L136.856 194.382L137.864 193.626L138.368 193.5Z" fill="#843284"/>
<path d="M101.583 193.625H102.716L103.346 194.129L103.598 194.759L103.472 195.893L103.346 196.9L103.472 198.16L103.094 199.168L102.842 199.42L101.583 199.546L100.575 199.168L100.071 198.286L99.8188 197.278V195.641L100.575 194.255L101.205 193.751L101.583 193.625Z" fill="#AF2B83"/>
<path d="M105.866 193.625H107.125L107.755 194.003L107.881 194.255V195.137L107.755 195.641L108.133 196.271L108.259 198.286L107.755 199.168L107.503 199.294L105.488 199.42L104.732 198.916L104.48 198.664V197.404L104.858 194.633L105.236 194.003L105.866 193.625Z" fill="#AE2B82"/>
<path d="M76.8911 193.625H79.1587L79.6626 194.129L80.1665 195.137L80.6704 198.034L80.5444 199.042L79.9146 199.42H77.269L76.6392 199.042L76.1353 198.412L76.0093 197.278L76.2612 196.648L76.8911 195.389L77.521 195.641L77.647 195.263L78.2769 195.515L78.9067 196.019L79.0327 196.9V197.278L78.5288 197.404L78.0249 197.278V196.648L77.647 197.026L77.269 197.656L77.647 198.286L78.4028 198.412L79.2847 198.16L79.1587 196.396L78.7808 195.011L77.647 194.759L76.7651 195.263L76.2612 195.641L76.3872 194.129L76.8911 193.625Z" fill="#B32D7F"/>
<path d="M142.147 193.625H143.407L144.037 194.003L144.163 194.129L144.037 195.011L143.911 195.137L144.037 196.019L144.541 196.9L144.667 197.53V198.538L144.037 199.168L143.029 199.42H141.895L141.139 198.916L140.761 198.286L141.139 197.026L141.265 194.507L141.643 193.877L142.147 193.625Z" fill="#893284"/>
<path d="M74.3716 191.232H75.2534L75.0015 191.988L74.7495 192.618V198.413L74.8755 199.421L74.7495 199.547H73.4897L72.6079 199.169L72.8599 198.287V196.397L72.6079 194.13H72.356L72.23 191.358L74.3716 191.232Z" fill="#A92A82"/>
<path d="M90.1187 193.5H90.8745L91.1265 193.626L91.8823 193.752L92.5122 194.13L92.7642 194.76L93.1421 197.279L93.2681 198.413L92.5122 199.043H92.2603V199.295L91.0005 199.547L89.9927 199.421L89.2368 198.791L88.9849 198.287V196.901L89.2368 196.271H89.4888L89.7407 195.516L90.1187 195.39L91.0005 195.516L90.8745 196.271L90.3706 197.279V198.161L90.4966 198.287H91.5044L91.6304 197.657L91.3784 197.279V195.138L90.8745 194.508L90.1187 194.76L89.8667 195.138L89.1108 195.264V194.13L89.7407 193.626L90.1187 193.5Z" fill="#AC2B82"/>
<path d="M43.1294 190.602L44.0112 190.728L44.5151 191.357L44.6411 191.861L44.0112 192.365L43.3813 192.239L43.2554 191.861L42.7515 191.987L42.6255 193.373L43.1294 193.877L43.0034 194.507L42.7515 195.263V199.42L42.2476 199.672H41.4917L41.2397 199.42V197.278L40.9878 194.633V193.247L41.3657 191.483L41.7437 190.854L43.1294 190.602Z" fill="#DF2F8A"/>
<path d="M120.479 97.6328L126.022 97.7588L128.29 98.0107V98.2627L122.873 98.3887H87.2212V98.2627L104.732 98.1367L104.984 97.8848H110.149L111.283 97.7588H119.093L120.479 97.6328Z" fill="#9C2C82"/>
<path d="M130.935 193.5L131.565 193.626L132.195 194.13L132.069 195.516L131.943 196.397V198.287L131.565 199.043L130.935 199.421H129.423L128.416 198.539L128.164 197.279L128.29 195.642L128.919 194.13L129.423 193.626L130.053 193.752L129.927 194.382L129.801 197.027L129.549 197.783L129.675 198.161H130.557L131.313 197.783L131.565 197.531V197.153L130.683 196.901L130.935 196.02V194.76L130.809 193.626L130.935 193.5Z" fill="#893284"/>
<path d="M94.4019 195.641H95.1577V196.145H95.5356L95.7876 196.9L95.9136 198.034H96.5435L96.7954 197.404L96.9214 197.026L97.0474 196.774H97.2993V197.782L98.4331 198.412L98.6851 198.664H99.063L99.189 200.176L98.6851 200.932L97.8032 201.436L96.6694 201.562L95.7876 201.058V200.932L96.9214 200.554L97.4253 200.302L97.6772 199.798L97.5513 199.042L97.0474 198.538L96.9214 198.916L95.7876 199.42L95.1577 199.672L94.9058 199.546L94.7798 198.79L95.0317 198.286V197.656L94.5278 197.026L94.2759 196.396L94.4019 195.641Z" fill="#AE2D7F"/>
<path d="M46.2788 193.752H47.4126L47.9165 194.004L48.0425 194.634L47.7905 195.138H47.5386V195.39L46.1528 195.516L46.0269 195.642L45.9009 199.421L45.6489 199.673H44.7671L44.5151 198.917L44.3892 197.405V195.138L44.8931 194.382L46.2788 193.752Z" fill="#DE2E89"/>
<path d="M134.084 192.24L134.588 192.366L134.84 192.87V194.004L134.714 194.634V197.783L135.218 198.791V199.421L134.714 199.673L133.958 199.547L133.455 199.169L133.203 197.657V194.13L133.707 192.618L134.084 192.24Z" fill="#893284"/>
<path d="M83.5679 193.752H84.7017L85.2056 194.256L85.4575 195.012L85.0796 195.768L84.4497 195.642L83.6938 195.138H83.4419L83.3159 195.516V197.909L83.5679 199.043L83.1899 199.547H82.4341L82.0562 199.169L81.9302 197.657V194.886L82.5601 194.256L83.5679 193.752Z" fill="#AE2B82"/>
<path d="M55.7271 193.625H57.4907L58.1206 194.255L58.3726 194.885L58.4985 195.641V199.042L58.2466 199.42H57.1128L56.6089 199.168V198.916L57.1128 198.79L56.9868 196.396L56.7349 195.137L56.3569 194.759V194.507L55.6011 194.759V193.751L55.7271 193.625Z" fill="#AF2B82"/>
<path d="M49.5542 193.625H51.0659L51.9478 194.003L52.4517 195.137L52.8296 197.53L53.0815 198.286V198.916L52.8296 199.168H52.4517V198.916L51.4438 198.538L50.814 194.633L50.688 194.255L50.0581 194.381L49.6802 195.137L49.0503 195.263L48.9243 194.885V193.877L49.5542 193.625Z" fill="#BA3674"/>
<path d="M76.8911 193.625H79.1587L79.6626 194.129L80.1665 195.137L80.5444 197.404V198.034L80.2925 198.538L79.2847 198.79H78.1509L78.5288 198.538H79.0327V198.286L79.2847 198.16L79.1587 196.396L78.7808 195.011L77.647 194.759L76.7651 195.263L76.2612 195.641L76.3872 194.129L76.8911 193.625Z" fill="#BA3575"/>
<path d="M70.5923 192.492H70.7183L70.9702 193.878L71.7261 195.516L71.8521 196.271V197.531L71.4741 198.791L71.2222 199.043L70.5923 198.917L70.4663 198.791L70.2144 196.901L69.4585 194.382V194.13H69.2065L69.0806 196.901H68.9546V195.012L69.0806 192.87H69.3325L69.7104 194.004H70.3403L70.5923 194.13L70.4663 193.5L70.5923 192.492Z" fill="#B93674"/>
<path d="M86.9692 191.863L87.5991 192.115L87.4731 194.383L87.5991 194.761L87.7251 196.902V198.918L87.2212 199.548L86.3394 199.422L86.2134 199.296L86.3394 195.013L86.4653 194.761V192.241L86.5913 191.989L86.9692 191.863Z" fill="#B02B83"/>
<path d="M93.2681 198.16L93.52 198.538L94.1499 199.168L94.5278 199.294L94.6538 198.916L94.9058 199.042V199.546L95.6616 199.42L96.1655 199.042L96.9214 198.79L97.0474 198.538L97.5513 198.79L97.8032 199.42L97.6772 200.05L97.1733 200.554L95.9136 201.058L96.6694 201.436H97.5513L97.0474 201.688H95.6616L94.5278 201.184L93.8979 200.428L93.2681 199.42L92.6382 199.168L92.2603 199.042L92.7642 198.79L93.0161 198.412H93.2681V198.16Z" fill="#DE2E89"/>
<path d="M51.0659 177.5L51.9478 177.878L52.4517 178.382L53.5854 178.256V179.012H53.8374L53.7114 179.264L53.4595 179.516L53.3335 180.02L53.0815 180.146H51.6958L51.3179 179.894H50.688L50.0581 179.516V179.264H49.0503L48.6724 179.012L48.7983 178.886L48.5464 178.76V178.508L49.1763 178.256L49.4282 178.13V178.382L50.3101 178.634V178.886L50.688 178.76L50.9399 178.004L50.688 177.752L51.0659 177.5Z" fill="#793283"/>
<path d="M129.423 193.625L130.053 193.751L129.927 194.381L129.801 197.026L129.549 197.782L129.927 198.538L128.919 198.664L128.793 198.916L128.416 198.538L128.164 197.278L128.29 195.641L128.919 194.129L129.423 193.625Z" fill="#833284"/>
<path d="M115.818 190.729L116.448 190.854L116.826 191.232L117.204 192.744L116.7 193.248L115.314 193.752L114.936 194.004H114.432L114.558 193.5L114.684 193.248L114.18 193.122L113.802 192.492L114.054 191.736L114.684 191.484L116.196 191.736L115.818 190.98V190.729Z" fill="#B12B83"/>
<path d="M42.7515 193.879L43.0034 194.131L42.7515 195.265V199.422L42.2476 199.674H41.4917L41.2397 199.422L41.3657 196.524L41.6177 196.398L41.8696 196.021L42.1216 195.769H41.8696L41.7437 195.265L42.1216 194.509H42.4995L42.6255 194.005L42.7515 193.879Z" fill="#B43575"/>
<path d="M141.139 97.2539L141.517 97.3799L141.643 98.5137H137.108L132.825 98.3877L130.683 98.2617L130.935 97.8838H140.131L141.013 97.5059L141.139 97.2539Z" fill="#9D2D81"/>
<path d="M34.437 196.902L34.563 197.28L34.1851 197.91L34.8149 197.532L34.689 198.036L33.6812 199.17L33.3032 199.422H31.9175L31.5396 199.044L31.4136 198.792L31.5396 197.658L31.7915 197.154H32.9253L33.0513 197.532L34.0591 197.154L34.437 196.902Z" fill="#B32D80"/>
<path d="M96.9214 193.5H97.1733L97.2993 194.004L97.5513 194.382L97.6772 195.768L97.2993 196.271L96.5435 196.02V197.153L96.4175 197.909H96.0396L95.4097 196.146V195.264L96.1655 194.256H96.4175L96.6694 193.752L96.9214 193.5Z" fill="#FDFDFD"/>
<path d="M114.306 190.602H115.818V190.854L116.07 190.979V191.231L116.196 191.735L114.684 191.609L114.054 191.861L113.928 192.491L114.306 193.247H113.928L113.676 193.751H113.424L113.172 194.255L112.542 192.365L112.668 191.735L113.172 191.105L114.306 190.602Z" fill="#AC2C82"/>
<path d="M97.6772 198.287H98.3071L98.6851 198.665H99.063L99.189 200.177L98.6851 200.933L97.8032 201.437L96.6694 201.562L95.7876 201.059V200.933L96.9214 200.555L97.4253 200.303L97.6772 199.799V198.287Z" fill="#AC2B82"/>
<path d="M138.116 194.256L138.62 194.382L139.124 194.886V195.642L138.746 196.02L138.242 196.271V197.279L138.872 197.153V196.146L139.124 196.271V196.649L139.501 196.775L139.375 197.279L139.627 197.531L138.998 198.161L138.746 198.287H137.99L137.486 197.657L137.612 196.146V194.886L137.864 194.382L138.116 194.256Z" fill="#FDFDFD"/>
<path d="M50.1841 194.383L50.814 194.509L51.0659 195.139L51.4438 197.532V198.414L51.0659 198.792H50.436L50.0581 198.414L49.9321 197.532L50.0581 197.028V195.769L49.9321 195.517V194.635L50.1841 194.383Z" fill="#FDFDFD"/>
<path d="M101.96 194.256L102.464 194.508L102.59 194.634V195.264L101.834 196.397L101.708 197.027H102.842L103.094 196.775V197.783L102.716 198.161L102.338 198.287H101.457L101.079 197.153L100.953 195.264L101.331 194.634L101.96 194.256Z" fill="#FDFDFD"/>
<path d="M106.244 194.508L106.874 194.76L107.377 195.39L107.251 196.146H106.748L106.496 196.02L106.622 197.279L107.125 197.783V198.413L106.496 198.791L105.866 198.665L105.488 198.035L105.614 196.775L105.866 195.894H106.118V194.634L106.244 194.508Z" fill="#FDFDFD"/>
<path d="M142.651 194.508L143.281 195.012V197.027L143.659 197.909V198.413L142.903 198.665H142.273L141.895 198.161L142.273 196.271V194.886L142.651 194.508Z" fill="#FDFDFD"/>
<path d="M68.7026 196.902H68.9546L68.8286 198.162L68.3247 199.296H66.813L66.4351 199.044L66.3091 197.784L66.687 197.406H67.6948L67.5688 197.658L67.3169 197.784L67.6948 198.036L67.9468 197.532L68.0728 197.154L68.7026 196.902Z" fill="#B32B83"/>
<path d="M74.3716 183.674L75.8833 183.8L77.0171 183.926H78.1509L79.7886 184.178L79.5366 184.43L84.0718 185.06V184.934H85.2056L87.3472 185.186L87.4731 185.438L85.8354 185.312L85.5835 185.186V185.438L87.7251 185.563V185.689H86.0874L78.9067 184.682L74.4976 183.926L74.3716 183.674Z" fill="#C7327D"/>
<path d="M97.0474 198.539L97.5513 198.791L97.8032 199.421L97.6772 200.051L97.1733 200.555L96.5435 200.807H95.7876L95.2837 200.303L95.4097 199.799L95.9136 199.169L96.9214 198.791L97.0474 198.539Z" fill="#FDFDFD"/>
<path d="M102.716 194.76L102.842 195.012L103.346 195.264V196.901L103.472 198.161L102.968 198.665L101.96 198.539L102.338 198.161L102.968 197.783V197.027L102.842 197.153H101.96L101.708 197.027L101.834 196.146L102.716 194.76Z" fill="#823383"/>
<path d="M76.8911 193.625H79.1587L79.6626 194.129L79.1587 194.507L78.7808 194.885L77.647 194.759L76.7651 195.263L76.2612 195.641L76.3872 194.129L76.8911 193.625Z" fill="#B42C81"/>
<path d="M131.691 196.648H131.817L131.943 198.286L131.565 199.042L130.935 199.42H129.423L128.919 199.042V198.664L129.675 198.412L130.557 198.16L131.313 197.782L131.565 197.53V197.152L131.313 196.9L131.691 196.648Z" fill="#923285"/>
<path d="M100.953 76.9727L101.457 77.0986L101.708 76.9727V77.9805L102.212 79.1143L102.716 79.9961L102.842 80.626H102.212L101.205 79.2402L100.575 78.4844L100.449 78.1064L100.953 76.9727Z" fill="#B63475"/>
<path d="M49.3022 197.656L49.6802 198.034V198.412H49.9321L50.0581 197.908L50.3101 198.538L50.436 198.664H51.0659L51.4438 198.412L52.5776 198.79L52.4517 199.168L52.7036 199.294L51.5698 199.42H49.4282L48.9243 198.916L48.7983 198.286L49.3022 197.656Z" fill="#DE2F89"/>
<path d="M123.25 193.752L123.754 194.256L124.384 194.508V194.76L124.888 194.886L125.14 195.39V196.146L124.888 196.397H124.132L123.25 195.39L122.999 195.642V194.76L123.25 193.752Z" fill="#BB3589"/>
<path d="M77.647 195.264L78.2769 195.516L78.9067 196.02L79.0327 196.901V197.279L78.5288 197.405L78.0249 197.279V196.649L77.647 197.027L77.269 197.657L77.1431 198.035L76.7651 197.279L76.8911 196.901H77.1431L77.269 195.894L77.0171 195.768L76.8911 195.39L77.521 195.642L77.647 195.264Z" fill="#DC2F89"/>
<path d="M67.4429 191.105L70.5923 191.357L70.7183 191.861L70.5923 192.491L70.3403 191.987L69.7104 191.735L68.8286 191.987L68.4507 192.617L68.3247 192.743L68.1987 196.522H68.0728L67.9468 192.491L67.5688 191.861L67.4429 191.105Z" fill="#DF2F8A"/>
<path d="M96.6694 193.121L96.9214 193.625L96.4175 194.255L95.7876 194.885L95.5356 195.263L95.4097 196.145H95.1577V195.641L94.5278 195.767L94.4019 195.263L94.7798 194.255H95.0317L95.2837 193.751L95.9136 193.373L96.6694 193.121Z" fill="#B72C83"/>
<path d="M135.218 76.2148L135.344 76.4668L135.092 77.0967L134.84 77.3486L135.344 79.3643L135.47 80.2461L135.722 80.498L135.092 80.624L134.084 78.9863V77.9785L135.218 76.2148Z" fill="#B83675"/>
<path d="M78.9067 196.145H79.1587L79.4106 197.404V198.16L79.0327 198.412L78.0249 198.538L77.395 198.16L77.1431 197.53L77.7729 196.648H78.0249V197.278H79.0327L78.9067 196.145Z" fill="#FDFDFD"/>
<path d="M89.8667 195.391L91.0005 195.517L90.8745 196.272L90.3706 197.28L90.2446 197.91H90.1187L89.9927 197.28L89.7407 196.902L89.6147 197.406L89.1108 197.532V198.288H88.9849V196.902L89.2368 196.272H89.4888L89.7407 195.517L89.8667 195.391Z" fill="#B52E80"/>
<path d="M65.9312 152.684H69.2065L69.8364 152.936L69.7104 153.439H69.4585V153.691L69.9624 153.565H70.3403L70.5923 153.943L68.5767 154.195L67.1909 154.069L67.4429 153.943V153.691H68.5767L68.3247 153.313V152.936H66.0571L65.9312 152.684Z" fill="#793283"/>
<path d="M114.684 191.484L115.692 191.61V192.114L114.936 193.626L113.928 192.87L113.802 192.24L114.054 191.736L114.684 191.484Z" fill="#FDFDFD"/>
<path d="M58.4985 153.943H59.0024V154.195L59.2544 154.321L58.4985 154.825L57.2388 155.077L56.8608 155.581L56.231 155.455V155.203L54.7192 155.959L54.3413 155.833L54.7192 155.455L57.3647 154.321L58.4985 153.943Z" fill="#823284"/>
<path d="M57.8687 194.129L58.2466 194.507L58.3726 194.885V197.53L58.2466 197.782V198.538L57.8687 198.412L57.6167 198.034V195.263L57.8687 194.885H58.1206L57.8687 194.129Z" fill="#B73771"/>
<path d="M42.4995 195.391H42.6255L42.7515 199.422L42.2476 199.674H41.4917L41.2397 199.422L41.3657 197.406H41.4917V198.414L42.1216 198.288V198.036L42.3735 197.91L42.4995 195.391Z" fill="#DF2F8A"/>
<path d="M35.8228 193.5H36.0747L36.9565 195.264V195.894L36.5786 196.146L36.0747 196.02L35.4448 194.634V193.878L35.8228 193.5Z" fill="#FDFDFD"/>
<path d="M62.9077 197.783L63.5376 198.161L63.6636 198.287V198.917L63.0337 199.295L62.0259 199.169L61.6479 199.043V198.287L61.8999 197.909H62.6558L62.9077 197.783Z" fill="#DF2F8A"/>
<path d="M90.1187 193.5H90.8745L91.1265 193.626L91.6304 193.752L91.1265 194.004V194.634L90.6226 194.508L89.9927 194.886L89.8667 195.138L89.1108 195.264V194.13L89.7407 193.626L90.1187 193.5Z" fill="#AE2B82"/>
<path d="M137.864 73.4453L138.116 73.5713L137.486 74.2012L136.73 75.7129H136.478V75.9648H136.226L136.1 76.4688L135.47 77.2246L135.218 77.0986L135.344 75.9648L136.982 74.2012L137.864 73.4453Z" fill="#B53871"/>
<path d="M62.7817 194.76L63.4116 194.886L63.5376 195.012V195.642L62.9077 196.397L62.5298 196.523L61.8999 196.02L61.7739 195.012L61.8999 194.886L62.7817 194.76Z" fill="#DC2F88"/>
<path d="M142.147 193.625H143.407L144.037 194.003L144.163 194.129L144.037 195.011L143.785 195.641L143.533 195.389L143.281 195.515L143.029 194.885L142.651 194.633L142.399 194.759L142.525 194.129L142.147 193.625Z" fill="#953185"/>
<path d="M70.7183 164.777L70.9702 164.903L71.2222 164.777L71.4741 165.533L71.978 165.659H70.5923L71.978 165.911L72.9858 166.163V166.289H71.7261L69.3325 165.911L69.2065 165.659L68.8286 165.407L69.3325 165.281H70.0884L70.7183 164.777Z" fill="#873184"/>
<path d="M100.323 185.438H101.079L101.205 185.941L101.079 186.067L97.1733 186.319H94.5278L91.5044 186.193V186.067L98.811 185.941L100.197 185.815L100.071 185.563L100.323 185.438Z" fill="#D53184"/>
<path d="M139.124 195.012H139.25L139.375 195.768H139.627V196.146H139.879L140.005 195.894L139.753 197.531L139.25 197.279L139.375 196.775L139.124 196.649L138.998 196.397V197.153L138.872 197.279H138.242L138.116 197.027V196.271L138.746 195.894H138.998L139.124 195.012Z" fill="#DF2F8A"/>
<path d="M45.6489 195.768H45.7749V199.547H45.019L45.145 199.295H45.397L45.145 198.665V196.02L45.6489 195.768Z" fill="#A62A81"/>
<path d="M49.5542 193.625H51.0659L51.1919 194.129L50.814 194.381L50.1841 194.255L49.8062 194.759L49.6802 195.137L49.0503 195.263L48.9243 194.885V193.877L49.5542 193.625Z" fill="#B83377"/>
<path d="M31.7915 197.152H32.9253L33.0513 197.53L33.9331 197.404L33.5552 197.656L32.6733 197.782V198.034L32.4214 198.16L32.2954 198.538L31.7915 198.79L31.5396 199.042L31.4136 198.79L31.5396 197.656L31.7915 197.152Z" fill="#D72E88"/>
<path d="M55.7271 193.625H57.4907L57.2388 193.877L57.4907 194.255L57.1128 195.011L56.7349 195.137L56.3569 194.759V194.507L55.6011 194.759V193.751L55.7271 193.625Z" fill="#DE2E89"/>
<path d="M147.312 153.691L147.816 153.943L145.674 155.077L144.415 155.581L143.659 155.455L144.037 155.077L145.548 154.447L146.808 153.943L147.312 153.691Z" fill="#DE2E89"/>
<path d="M128.793 145.754L129.549 145.88L129.675 146.888L129.549 147.518H129.801L129.675 148.021L129.045 147.896V147.644L128.793 147.518L128.667 146.636V145.88L128.793 145.754Z" fill="#7A3283"/>
<path d="M74.3716 191.232H75.2534L75.0015 191.988L74.7495 192.24L74.3716 191.988L73.7417 192.24L73.1118 192.114L72.9858 191.484H72.356L72.23 191.862V191.358L74.3716 191.232Z" fill="#DF2F8A"/>
<path d="M82.0562 184.809L84.0718 185.061V184.935H85.2056L87.3472 185.187L87.4731 185.438L85.8354 185.312L85.5835 185.187V185.438L87.7251 185.564V185.69H86.0874L81.5522 185.061L82.0562 184.809Z" fill="#D03281"/>
<path d="M140.761 180.777L141.265 181.407L142.147 183.423L143.659 186.572L144.289 187.58L144.792 188.84L144.667 189.092L143.407 186.698L142.021 183.927L140.761 181.155V180.777Z" fill="#DF2F8A"/>
<path d="M64.4194 153.062H64.7974V153.314L64.4194 153.566L64.6714 153.818H64.2935V154.07L62.6558 154.196L62.0259 154.07V153.818L63.2856 153.314L64.4194 153.062Z" fill="#793384"/>
<path d="M129.927 191.736L130.809 191.862L130.935 192.24H131.187L131.313 193.122H130.935L130.557 192.744L129.297 192.87L129.549 192.24L129.927 191.736Z" fill="#BE2C85"/>
<path d="M77.521 159.738L77.7729 159.864V160.242L77.521 160.368V160.746L77.395 161.502H76.7651L76.6392 161.25L76.5132 161.124V160.872L75.8833 160.62V160.242L77.1431 159.99L77.521 159.738Z" fill="#793384"/>
<path d="M50.814 172.461L52.0737 172.587H52.5776L52.4517 172.839L52.5776 172.965L52.0737 173.217L51.5698 173.343L50.9399 173.217L50.3101 173.343L50.0581 173.091L49.5542 172.965L48.7983 172.839V172.713L49.6802 172.587L49.8062 172.713L50.814 172.461Z" fill="#793384"/>
<path d="M34.437 196.902L34.563 197.28L34.1851 197.784H33.9331L33.8071 198.162L33.3032 198.54H33.0513V198.918L32.4214 198.792V198.036H32.6733V197.784L33.9331 197.532L34.1851 197.028L34.437 196.902Z" fill="#B63772"/>
<path d="M41.7437 196.02L41.9956 196.146L42.1216 197.153H42.3735L42.4995 197.909L42.1216 198.035V198.287L41.4917 198.413L41.3657 196.523L41.6177 196.397L41.7437 196.02Z" fill="#A72B80"/>
<path d="M133.203 120.309L133.581 120.812L134.966 123.584L135.47 124.844H135.218L134.966 124.088L134.588 123.962L133.203 121.064L132.951 120.435L133.203 120.309Z" fill="#9B3082"/>
<path d="M116.448 194.76H117.33V194.886L116.196 195.138L116.448 195.894L116.07 196.775H115.818L115.692 197.027L115.44 196.523L115.566 195.138L116.448 194.76Z" fill="#DF2F8A"/>
<path d="M76.7651 195.641L77.1431 195.767L77.269 195.893V196.648L76.8911 197.026L77.0171 197.782L76.3872 197.404L76.2612 198.16L76.0093 198.034L76.1353 196.774L76.5132 196.271L76.7651 195.641Z" fill="#B42B83"/>
<path d="M155.752 165.91L156.13 166.036L156.886 167.926L156.76 168.304L156.256 167.17V166.792L155.626 166.918H155.249L154.241 167.548H153.863L154.997 166.414L155.752 165.91Z" fill="#DF2F8A"/>
<path d="M76.6392 198.414L77.269 198.54L77.7729 198.792L78.9067 198.918L79.1587 199.17L79.9146 199.296V199.422H77.269L76.6392 198.792V198.414Z" fill="#DF2F8A"/>
<path d="M100.827 77.7266L101.205 78.1045L101.457 78.6084L102.338 79.7422L102.464 80.498H102.086L101.331 79.3643L100.701 78.7344V77.9785L100.827 77.7266Z" fill="#AF2C81"/>
<path d="M80.2925 198.035H80.6704L80.5444 199.043L80.2925 199.295H79.1587L78.9067 199.043L78.2769 198.917V198.791L80.2925 198.413V198.035Z" fill="#AC2A82"/>
<path d="M129.423 198.414L130.053 198.666L130.935 199.17V199.422H129.423L128.919 199.044V198.666L129.423 198.414Z" fill="#AD2B83"/>
<path d="M68.7026 196.902H68.9546L68.8286 197.784L68.7026 197.532L68.4507 197.658V198.288L67.5688 198.54L67.4429 198.036H67.6948L67.9468 197.532L68.0728 197.154L68.7026 196.902Z" fill="#B73772"/>
<path d="M126.022 76.9727L126.526 77.0986L126.904 77.6025L126.778 78.4844L126.526 78.7363L126.022 78.6104L126.148 77.4766H125.896L126.022 76.9727Z" fill="#BF3577"/>
<path d="M89.7407 196.902L89.9927 197.028L90.1187 197.154L89.9927 198.288H89.7407V198.54H89.1108V197.532L89.6147 197.406L89.7407 196.902Z" fill="#AD3872"/>
<path d="M69.0806 192.871H69.3325L69.8364 194.635L69.9624 195.769L69.7104 195.391L69.4585 194.131H69.2065L69.0806 196.902H68.9546V195.013L69.0806 192.871Z" fill="#DF2F8A"/>
<path d="M97.6772 194.383L98.1812 194.635L98.4331 195.013L98.3071 195.769L98.1812 196.021L97.6772 196.272H97.2993L97.5513 195.769V194.509L97.6772 194.383Z" fill="#873283"/>
<path d="M137.864 73.4453L138.116 73.5713L137.486 74.2012L137.234 74.7051L136.226 75.5869L135.344 76.3428L135.47 75.8389L136.982 74.2012L137.864 73.4453Z" fill="#B73678"/>
<path d="M74.3716 191.863L74.7495 192.115L74.4976 194.635H74.3716V192.745H74.1196V192.493L73.6157 192.745L73.2378 193.123H72.9858V192.871L73.6157 192.367L73.8677 191.989L74.3716 191.863Z" fill="#AE3278"/>
<path d="M35.8228 191.484H36.3267V191.988L37.3345 191.736V191.988H37.0825V192.366L36.7046 192.492L36.5786 192.744L35.9487 192.492V191.988H35.6968V191.736L35.4448 191.61L35.8228 191.484Z" fill="#A92D7D"/>
<path d="M78.4028 68.2793L79.2847 68.4053L79.5366 69.0352L79.6626 69.665L79.5366 69.917H79.1587L78.4028 68.5312V68.2793Z" fill="#BB2E81"/>
<path d="M94.4019 195.641H95.1577L95.2837 196.271L94.9058 197.152L94.5278 197.026L94.2759 196.396L94.4019 195.641Z" fill="#833383"/>
<path d="M54.3413 191.105L54.5933 191.231L54.3413 191.735L54.8452 191.861L54.7192 192.491L54.5933 192.743L54.8452 192.869L54.4673 192.995L54.3413 195.011H54.2153L54.0894 191.483L54.3413 191.105Z" fill="#DC2F89"/>
<path d="M50.1841 194.129L50.814 194.255V194.507H50.1841L50.0581 194.633V195.767L49.3022 195.893L49.0503 195.767V195.263L49.6802 195.137L49.8062 194.507L50.1841 194.129Z" fill="#C22C86"/>
<path d="M124.762 194.887L125.14 195.391V196.146L124.888 196.398H124.132L123.88 196.021L124.258 195.769H124.51L124.762 194.887Z" fill="#DE2E89"/>
<path d="M46.2788 193.752H47.4126V194.004L46.7827 194.256L45.7749 194.382L45.019 194.76H44.7671L44.8931 194.382L46.2788 193.752Z" fill="#BB2C83"/>
<path d="M137.864 172.715H138.872V172.967L137.234 173.597L136.73 173.471L136.982 172.967L137.864 172.715Z" fill="#CE2D87"/>
<path d="M140.257 160.871L140.761 160.997L140.005 161.123V161.375L138.872 161.627L137.108 161.879H136.352V161.753L139.753 160.997L140.257 160.871Z" fill="#DF2F8A"/>
<path d="M103.22 197.406L103.472 197.532L103.346 198.414L102.968 198.666L101.96 198.54L102.338 198.162L102.968 197.784L103.22 197.406Z" fill="#883383"/>
<path d="M112.668 192.492L113.298 192.618L113.55 193.374L113.928 193.248L113.676 193.752H113.424L113.172 194.256L112.92 193.5L112.668 192.87V192.492Z" fill="#DF2F8A"/>
<path d="M66.939 197.406H67.6948L67.5688 197.658L67.3169 197.784L67.4429 198.036L66.939 198.666L66.561 198.54V197.784L66.939 197.406Z" fill="#B63871"/>
<path d="M72.356 191.863L72.6079 192.367L72.7339 193.879L72.9858 195.013V196.398H72.8599L72.6079 194.131H72.356V191.863Z" fill="#DF2F8A"/>
<path d="M49.4282 196.398L49.6802 196.524V198.036L49.3022 197.784L48.9243 198.162L49.0503 197.028L49.1763 196.65H49.4282V196.398Z" fill="#A62A82"/>
<path d="M142.147 193.625H143.407L143.281 194.255L142.777 194.633L142.399 194.759L142.525 194.129L142.147 193.625Z" fill="#B22B84"/>
<path d="M41.8696 182.793H42.8774V183.045L40.7358 183.549L39.98 183.423L40.3579 183.171L41.6177 182.919L41.8696 183.045V182.793Z" fill="#AF2B84"/>
<path d="M46.0269 181.658L47.4126 181.784L47.0347 182.162L46.2788 182.414L45.7749 182.288V182.036L45.5229 181.91L46.0269 181.658Z" fill="#9F2C82"/>
<path d="M129.297 113H129.801L130.683 115.016L130.557 115.268H130.305L129.675 113.756L129.297 113Z" fill="#A22D84"/>
<path d="M141.517 95.6172L141.769 95.9951V97.7588L141.517 97.8848V97.3809L141.265 97.2549V96.1211L141.517 95.6172Z" fill="#8F3285"/>
<path d="M72.9858 196.398H73.1118L73.2378 198.666L73.3638 199.044L73.2378 199.296L73.4897 199.422L72.7339 199.296L72.6079 198.918L72.8599 198.288L72.9858 196.398Z" fill="#DF2F8A"/>
<path d="M55.4751 194.887H55.6011L55.7271 199.17L55.3491 199.548H54.7192L55.2231 199.422L55.3491 198.918L55.4751 194.887Z" fill="#DF2F8A"/>
<path d="M96.7954 191.988L97.4253 192.114L97.5513 192.492L97.4253 192.744H96.6694L96.5435 192.996L96.2915 192.492L96.7954 191.988Z" fill="#B82B84"/>
<path d="M114.054 174.604L116.7 174.855L117.582 174.981V175.107H115.566L114.054 174.855V174.604Z" fill="#BF3576"/>
<path d="M103.094 196.271H103.22L103.346 197.405L103.094 197.531L102.968 197.027L102.842 197.153H101.96L101.708 197.027V196.397L101.834 196.649L102.338 196.775L102.716 196.901L103.094 196.271Z" fill="#DF2F8A"/>
<path d="M122.117 191.484L122.369 191.61L122.117 192.114L121.613 192.24V192.87L121.487 192.492L121.109 192.366L121.235 191.736L122.117 191.484Z" fill="#DA378E"/>
<path d="M72.104 183.043L73.2378 183.169L73.3638 183.673L71.978 183.547L71.3481 183.295L71.7261 183.169L72.104 183.043Z" fill="#C1317E"/>
<path d="M57.1128 197.027H57.2388L57.3647 198.917L57.6167 199.169L58.2466 199.295V199.421H57.1128L56.6089 199.169V198.917L57.1128 198.791V197.027Z" fill="#DF2F8A"/>
<path d="M138.494 196.02H138.746L138.872 197.027L138.242 197.153L138.116 197.027V196.271L138.494 196.02Z" fill="#8B3285"/>
<path d="M32.2954 198.16H32.4214V198.79L32.9253 199.042L32.2954 199.294H31.6655L31.7915 198.664L32.2954 198.538V198.16Z" fill="#A92A82"/>
<path d="M87.4731 196.02H87.5991V197.909L87.2212 197.783L87.0952 196.523L87.3472 196.397L87.4731 196.02Z" fill="#A33973"/>
<path d="M96.4175 196.02L96.6694 196.271L96.7954 197.909L96.5435 198.161L95.9136 198.035L95.7876 197.153L96.0396 197.657V197.909H96.4175V196.02Z" fill="#DF2F8A"/>
<path d="M129.927 191.736H130.305L130.179 192.618L129.801 192.87H129.297L129.549 192.24L129.927 191.736Z" fill="#963285"/>
<path d="M74.3716 183.674L75.8833 183.8L76.8911 184.052V184.304L75.0015 184.052L74.3716 183.8V183.674Z" fill="#BF3676"/>
<path d="M85.0796 84.9082L85.3315 85.2861L85.4575 85.5381V86.7979L85.0796 86.9238L84.9536 85.916L85.2056 85.6641L84.9536 85.4121L85.0796 84.9082Z" fill="#BA3675"/>
<path d="M121.613 198.16L121.991 198.664L122.243 199.294H121.487L121.109 199.042V198.79L121.487 198.412L121.613 198.16Z" fill="#DF2F8A"/>
<path d="M89.8667 195.391L91.0005 195.517L90.8745 196.272L90.6226 196.524V196.146L90.2446 196.272L90.3706 195.769L89.8667 195.643L89.7407 196.021L89.6147 195.769L89.8667 195.391Z" fill="#DF2F8A"/>
<path d="M62.1519 153.062H63.0337L62.6558 153.314L61.522 153.566L60.7661 153.692L60.6401 153.944V153.44L61.396 153.188L62.1519 153.062Z" fill="#8A3285"/>
<path d="M90.1187 193.5H90.8745L91.1265 193.626L91.6304 193.752L91.1265 194.004V194.634L90.6226 194.382L90.4966 193.626L90.1187 193.5Z" fill="#DF2F8A"/>
<path d="M115.818 190.729L116.448 190.854L116.7 191.232L116.574 191.736L116.07 192.114L115.692 191.988L115.818 191.736H116.196L115.818 190.98V190.729Z" fill="#DD2E89"/>
<path d="M38.4683 196.775L38.5942 197.027H38.9722L39.0981 197.531L38.8462 198.035H38.4683L38.3423 197.153L38.4683 196.775Z" fill="#A62A82"/>
<path d="M55.853 154.951L56.105 155.077L55.7271 155.455L54.7192 155.959L54.3413 155.833L54.7192 155.455L55.853 154.951Z" fill="#8A3285"/>
<path d="M134.21 77.7266L134.588 78.1045L134.714 78.8604L134.21 79.2383L134.084 78.9863V77.9785L134.21 77.7266Z" fill="#DB2E89"/>
<path d="M114.306 64.625L114.936 65.0029L115.44 65.3809V65.7588L114.684 65.5068L114.18 64.877L114.306 64.625Z" fill="#DD2E89"/>
<path d="M122.873 195.768H122.999L123.125 197.531L122.621 197.657L122.495 196.901L122.747 196.649L122.873 195.768Z" fill="#873382"/>
<path d="M33.4292 198.664L33.6812 198.79L33.3032 199.42H31.9175L32.2954 199.168L32.9253 198.916L33.4292 198.664Z" fill="#DF2F8A"/>
<path d="M74.6235 159.109L75.1274 159.235V159.487L75.6313 159.613L75.8833 159.487L76.1353 159.739L75.2534 159.865L74.4976 159.613L74.6235 159.109Z" fill="#7C3283"/>
<path d="M123.628 198.539L124.132 198.791L124.006 199.295L123.754 199.421H122.873L123.376 199.169V198.791L123.628 198.539Z" fill="#CF2D87"/>
<path d="M105.992 194.633H106.118L106.244 196.145L106.118 195.893H105.866L105.74 196.271V196.019L105.362 195.893H105.614V195.389L105.866 195.263L105.992 194.633Z" fill="#DF2F8A"/>
<path d="M116.952 191.988H117.078L117.204 192.87L116.7 193.248L115.944 193.374L116.7 192.492L116.952 191.988Z" fill="#DF2F8A"/>
<path d="M93.646 78.1055L93.8979 78.3574V78.9873L93.52 79.1133L93.1421 78.9873L93.394 78.2314L93.646 78.1055Z" fill="#DD2F89"/>
<path d="M93.1421 77.6016H93.52L93.646 78.2314L93.394 78.3574L93.2681 78.9873L92.8901 78.4834V77.8535H93.1421V77.6016Z" fill="#B83772"/>
<path d="M74.6235 198.414H74.7495L74.8755 199.422L74.7495 199.548H73.4897V199.422H74.1196L74.2456 199.044H74.6235V198.414Z" fill="#DF2F8A"/>
<path d="M73.1118 196.398L73.2378 196.65L73.6157 196.776V197.658H73.3638L73.2378 197.91L73.1118 197.28V196.398Z" fill="#B63871"/>
<path d="M150.965 156.463L151.217 156.589L150.335 157.219L150.083 157.471L149.454 157.597L149.58 157.219L150.965 156.463Z" fill="#B72B84"/>
<path d="M106.37 70.6719L106.622 70.7979V71.0498H106.244L106.37 71.4277L105.74 71.8057L105.488 71.6797L105.866 71.0498L106.37 70.6719Z" fill="#AD2B82"/>
<path d="M148.446 68.5312H149.454L149.202 69.0352H148.698L148.068 69.1611V68.9092L148.446 68.5312Z" fill="#AF2D82"/>
<path d="M74.4976 198.16H74.6235V199.042L73.9937 198.916L73.6157 198.664L73.7417 198.286L74.4976 198.664V198.16Z" fill="#B63871"/>
<path d="M100.827 77.7266L101.205 78.1045L101.457 78.7344L100.953 78.9863L100.701 78.4824L100.827 77.7266Z" fill="#DB2E89"/>
<path d="M113.928 64.375L114.558 64.501L115.566 65.2568L115.188 65.3828L114.432 64.7529L114.18 65.1309L113.802 64.7529L113.928 64.375Z" fill="#BD2D83"/>
<path d="M125.392 191.105L126.526 191.357L126.904 191.609L126.778 191.861H126.148L125.896 191.357L125.392 191.105Z" fill="#DF2F8A"/>
<path d="M85.0796 185.186H85.5835V185.438L87.7251 185.563V185.689H86.0874L85.0796 185.563V185.186Z" fill="#BF327B"/>
<path d="M71.2222 165.785L72.7339 166.037L72.9858 166.289H71.7261L71.0962 166.037L71.2222 165.785Z" fill="#833284"/>
<path d="M133.203 120.309L133.581 120.812L133.833 121.568L133.581 121.82L132.951 120.435L133.203 120.309Z" fill="#A62E82"/>
<path d="M78.7808 68.5312L79.4106 68.7832L79.6626 69.1611V69.5391L79.1587 69.4131L78.7808 68.9092V68.5312Z" fill="#DF2F8A"/>
<path d="M83.064 194.508H83.4419L83.5679 194.886H83.3159V195.516L82.938 195.642L82.812 194.76L83.064 194.508Z" fill="#B83772"/>
<path d="M134.588 123.078L134.966 123.582L135.47 124.842H135.218L134.966 124.086L134.588 123.96L134.462 123.33L134.588 123.078Z" fill="#933182"/>
<path d="M101.834 196.145L101.96 196.396L102.464 196.271L102.842 196.522L102.716 197.026L101.834 196.648V196.145Z" fill="#A72C7F"/>
<path d="M130.935 116.023L131.313 116.149L131.817 117.283L131.565 117.535L130.935 116.275V116.023Z" fill="#A12E83"/>
<path d="M34.8149 194.76L35.4448 194.886L35.5708 195.39L35.4448 195.642L34.9409 195.39L34.8149 194.76Z" fill="#B63871"/>
<path d="M70.5923 192.492H70.7183L70.9702 193.878L71.0962 194.382L70.5923 194.13L70.4663 193.5L70.5923 192.492Z" fill="#C8337D"/>
<path d="M93.0161 78.9883H93.646L93.52 79.4922L93.1421 79.8701L92.8901 79.7441V79.1143L93.0161 78.9883Z" fill="#BA3773"/>
<path d="M107.125 195.012L107.755 195.138L107.881 195.768V196.146L107.629 196.02L107.251 196.146V195.39L107.125 195.012Z" fill="#DF2F8A"/>
<path d="M50.436 180.65L50.9399 180.902L50.562 181.154H49.4282L49.5542 180.902L50.436 180.65Z" fill="#793384"/>
<path d="M128.919 97.8828L130.557 98.1348V98.2607H128.416L128.542 98.0088L128.919 97.8828Z" fill="#A62A82"/>
</svg>
