<svg width="34" height="34" viewBox="0 0 34 34" fill="none" xmlns="http://www.w3.org/2000/svg">
<path fill-rule="evenodd" clip-rule="evenodd" d="M17 34C26.3888 34 34 26.3888 34 17C34 7.61116 26.3888 0 17 0C7.61116 0 0 7.61116 0 17C0 26.3888 7.61116 34 17 34ZM16.42 26.814C16.5894 26.9346 16.7921 26.9994 17 26.9994C17.2079 26.9994 17.4106 26.9346 17.58 26.814C17.884 26.599 25.029 21.44 25 15C25 10.589 21.411 7 17 7C12.589 7 9 10.589 9 14.995C8.971 21.44 16.116 26.599 16.42 26.814ZM17 9C20.309 9 23 11.691 23 15.005C23.021 19.443 18.612 23.428 17 24.735C15.389 23.427 10.979 19.441 11 15C11 11.691 13.691 9 17 9ZM17 19C19.206 19 21 17.206 21 15C21 12.794 19.206 11 17 11C14.794 11 13 12.794 13 15C13 17.206 14.794 19 17 19ZM17 13C18.103 13 19 13.897 19 15C19 16.103 18.103 17 17 17C15.897 17 15 16.103 15 15C15 13.897 15.897 13 17 13Z" fill="white"/>
</svg>
