<svg width="44" height="43" viewBox="0 0 44 43" fill="none" xmlns="http://www.w3.org/2000/svg">
<circle cx="21.4996" cy="16.3348" r="14.62" fill="white"/>
<path fill-rule="evenodd" clip-rule="evenodd" d="M21.5172 0.00153773C19.4291 -0.0276312 17.3561 0.358437 15.4186 1.13731C13.4811 1.91619 11.7176 3.07234 10.2307 4.53859C8.74386 6.00484 7.56319 7.75195 6.75733 9.67842C5.95147 11.6049 5.53648 13.6723 5.53648 15.7605C5.53648 17.8488 5.95147 19.9162 6.75733 21.8426C7.56319 23.7691 8.74386 25.5162 10.2307 26.9825C11.7176 28.4487 13.4811 29.6049 15.4186 30.3837C17.3561 31.1626 19.4291 31.5487 21.5172 31.5195C25.6971 31.5195 29.7059 29.859 32.6615 26.9034C35.6172 23.9477 37.2777 19.9389 37.2777 15.759C37.2777 11.579 35.6172 7.57029 32.6615 4.61461C29.7059 1.65894 25.6971 0.00153773 21.5172 0.00153773ZM22.1414 7.45281L24.2418 11.6782C24.2874 11.7855 24.3612 11.8785 24.4555 11.9473C24.5497 12.016 24.6607 12.058 24.7769 12.0687L29.4389 12.776C29.5724 12.7931 29.6983 12.8479 29.8017 12.934C29.9052 13.0201 29.9819 13.1339 30.0229 13.2621C30.0639 13.3903 30.0675 13.5275 30.0332 13.6577C29.999 13.7878 29.9283 13.9055 29.8295 13.9969L26.3914 17.2689C26.3397 17.3665 26.3127 17.4752 26.3127 17.5857C26.3127 17.6961 26.3397 17.8048 26.3914 17.9024L27.0495 22.5399C27.0772 22.6734 27.0657 22.8121 27.0163 22.9392C26.967 23.0664 26.882 23.1766 26.7715 23.2565C26.661 23.3364 26.5298 23.3827 26.3936 23.3898C26.2574 23.3969 26.1221 23.3644 26.0039 23.2964L21.8524 21.1007C21.7446 21.0518 21.6277 21.0266 21.5095 21.0266C21.3912 21.0266 21.2743 21.0518 21.1666 21.1007L17.015 23.2964C16.8969 23.3644 16.7615 23.3969 16.6253 23.3898C16.4891 23.3827 16.3579 23.3364 16.2474 23.2565C16.1369 23.1766 16.0519 23.0664 16.0026 22.9392C15.9533 22.8121 15.9418 22.6734 15.9694 22.5399L16.7475 17.9024C16.7814 17.7949 16.7879 17.6807 16.7664 17.5701C16.7449 17.4594 16.6961 17.3559 16.6245 17.2689L13.1833 13.9723C13.0909 13.88 13.0258 13.7639 12.9953 13.6369C12.9648 13.5099 12.9701 13.377 13.0105 13.2528C13.051 13.1286 13.125 13.018 13.2244 12.9333C13.3239 12.8486 13.4448 12.7931 13.5738 12.7729L18.239 12.0933C18.3551 12.0826 18.4662 12.0406 18.5604 11.9719C18.6546 11.9031 18.7284 11.8101 18.7741 11.7028L20.8744 7.47741C20.9303 7.35748 21.0188 7.25564 21.1297 7.18346C21.2406 7.11128 21.3695 7.07166 21.5018 7.0691C21.6341 7.06654 21.7645 7.10114 21.8781 7.16897C21.9917 7.2368 22.084 7.33513 22.1445 7.45281H22.1414ZM37.8251 26.6361C35.1716 30.6048 31.166 33.4737 26.5544 34.7085L30.8966 42.2305C31.0485 42.4939 31.2751 42.7064 31.5477 42.841C31.8204 42.9757 32.1268 43.0265 32.4283 42.987C32.7298 42.9475 33.0128 42.8195 33.2416 42.6191C33.4703 42.4188 33.6346 42.1552 33.7135 41.8615L35.2819 36.0216L41.1186 37.5869C41.4123 37.6653 41.7226 37.6549 42.0104 37.557C42.2982 37.4591 42.5504 37.2781 42.7354 37.0369C42.9203 36.7957 43.0296 36.5051 43.0495 36.2018C43.0693 35.8984 42.9988 35.5961 42.8469 35.3328L37.8251 26.6361ZM16.4953 34.7116C11.8809 33.4864 7.87153 30.6207 5.21846 26.6514L0.205843 35.3328C0.0539194 35.5961 -0.0165685 35.8984 0.00328383 36.2018C0.0231362 36.5051 0.132438 36.7957 0.317381 37.0369C0.502324 37.2781 0.75461 37.4591 1.04237 37.557C1.33013 37.6549 1.64044 37.6653 1.93412 37.5869L7.77397 36.0216L9.33926 41.8615C9.41819 42.1552 9.58241 42.4188 9.81117 42.6191C10.0399 42.8195 10.3229 42.9475 10.6244 42.987C10.9259 43.0265 11.2324 42.9757 11.505 42.841C11.7777 42.7064 12.0043 42.4939 12.1562 42.2305L16.4953 34.7116Z" fill="url(#paint0_linear_581_664)"/>
<defs>
<linearGradient id="paint0_linear_581_664" x1="21.5264" y1="0" x2="21.5264" y2="43" gradientUnits="userSpaceOnUse">
<stop stop-color="#C729BC"/>
<stop offset="1" stop-color="#3C5EE7"/>
</linearGradient>
</defs>
</svg>
