<svg width="78" height="82" viewBox="0 0 78 82" fill="none" xmlns="http://www.w3.org/2000/svg">
<g filter="url(#filter0_d_605_2377)">
<path d="M73.4023 36.7012C73.4023 56.9707 56.9707 73.4023 36.7012 73.4023C16.4317 73.4023 0 56.9707 0 36.7012C0 16.4317 16.4317 0 36.7012 0C56.9707 0 73.4023 16.4317 73.4023 36.7012ZM1.76164 36.7012C1.76164 55.9977 17.4046 71.6407 36.7012 71.6407C55.9977 71.6407 71.6407 55.9977 71.6407 36.7012C71.6407 17.4046 55.9977 1.76164 36.7012 1.76164C17.4046 1.76164 1.76164 17.4046 1.76164 36.7012Z" fill="url(#paint0_linear_605_2377)"/>
</g>
<defs>
<filter id="filter0_d_605_2377" x="-4" y="0" width="81.4023" height="81.4023" filterUnits="userSpaceOnUse" color-interpolation-filters="sRGB">
<feFlood flood-opacity="0" result="BackgroundImageFix"/>
<feColorMatrix in="SourceAlpha" type="matrix" values="0 0 0 0 0 0 0 0 0 0 0 0 0 0 0 0 0 0 127 0" result="hardAlpha"/>
<feOffset dy="4"/>
<feGaussianBlur stdDeviation="2"/>
<feComposite in2="hardAlpha" operator="out"/>
<feColorMatrix type="matrix" values="0 0 0 0 0 0 0 0 0 0 0 0 0 0 0 0 0 0 0.25 0"/>
<feBlend mode="normal" in2="BackgroundImageFix" result="effect1_dropShadow_605_2377"/>
<feBlend mode="normal" in="SourceGraphic" in2="effect1_dropShadow_605_2377" result="shape"/>
</filter>
<linearGradient id="paint0_linear_605_2377" x1="36.7012" y1="0" x2="36.7012" y2="73.4023" gradientUnits="userSpaceOnUse">
<stop stop-color="#C729BC"/>
<stop offset="1" stop-color="#3A22A8"/>
</linearGradient>
</defs>
</svg>
