<svg width="30" height="30" viewBox="0 0 30 30" fill="none" xmlns="http://www.w3.org/2000/svg">
<path fill-rule="evenodd" clip-rule="evenodd" d="M21.0938 1.875C21.4667 1.875 21.8244 2.02316 22.0881 2.28688C22.3518 2.5506 22.5 2.90829 22.5 3.28125V5.625H26.25C26.7473 5.625 27.2242 5.82254 27.5758 6.17417C27.9275 6.52581 28.125 7.00272 28.125 7.5V26.25C28.125 26.7473 27.9275 27.2242 27.5758 27.5758C27.2242 27.9275 26.7473 28.125 26.25 28.125H3.75C3.25272 28.125 2.77581 27.9275 2.42417 27.5758C2.07254 27.2242 1.875 26.7473 1.875 26.25V7.5C1.875 7.00272 2.07254 6.52581 2.42417 6.17417C2.77581 5.82254 3.25272 5.625 3.75 5.625H7.5V3.28125C7.5 2.90829 7.64816 2.5506 7.91188 2.28688C8.1756 2.02316 8.53329 1.875 8.90625 1.875C9.27921 1.875 9.6369 2.02316 9.90062 2.28688C10.1643 2.5506 10.3125 2.90829 10.3125 3.28125V5.625H19.6875V3.28125C19.6875 2.90829 19.8357 2.5506 20.0994 2.28688C20.3631 2.02316 20.7208 1.875 21.0938 1.875ZM4.6875 14.0625V25.3125H25.3125V14.0625H4.6875ZM4.6875 11.25H25.3125V8.4375H4.6875V11.25ZM19.275 16.8188C19.5383 17.0824 19.6863 17.4398 19.6863 17.8125C19.6863 18.1852 19.5383 18.5426 19.275 18.8062L15.0562 23.025C14.7926 23.2883 14.4352 23.4363 14.0625 23.4363C13.6898 23.4363 13.3324 23.2883 13.0687 23.025L10.725 20.6812C10.5868 20.5525 10.476 20.3973 10.3992 20.2248C10.3223 20.0523 10.281 19.866 10.2776 19.6772C10.2743 19.4884 10.309 19.3009 10.3798 19.1258C10.4505 18.9507 10.5558 18.7916 10.6893 18.6581C10.8228 18.5245 10.9819 18.4192 11.157 18.3485C11.3321 18.2778 11.5197 18.2431 11.7085 18.2464C11.8973 18.2497 12.0835 18.291 12.256 18.3679C12.4285 18.4448 12.5838 18.5556 12.7125 18.6938L14.0625 20.0437L17.2875 16.8188C17.5512 16.5554 17.9086 16.4075 18.2812 16.4075C18.6539 16.4075 19.0113 16.5554 19.275 16.8188Z" fill="url(#paint0_linear_605_2390)"/>
<defs>
<linearGradient id="paint0_linear_605_2390" x1="15" y1="1.875" x2="15" y2="28.125" gradientUnits="userSpaceOnUse">
<stop stop-color="#C729BC"/>
<stop offset="1" stop-color="#33209C"/>
</linearGradient>
</defs>
</svg>
