<svg width="20" height="26" viewBox="0 0 20 26" fill="none" xmlns="http://www.w3.org/2000/svg">
<g clip-path="url(#clip0_1043_2462)">
<path d="M19.837 10.4092C17.9692 10.4138 16.1474 9.74252 14.6289 8.49023V17.2207C14.6285 18.8376 14.1993 20.4159 13.3987 21.7443C12.598 23.0728 11.4642 24.0881 10.1488 24.6546C8.83337 25.221 7.3991 25.3116 6.03777 24.9141C4.67645 24.5166 3.453 23.6501 2.53102 22.4303C1.60905 21.2106 1.03253 19.6959 0.878552 18.0887C0.724576 16.4815 1.00049 14.8585 1.6694 13.4368C2.3383 12.015 3.3683 10.8623 4.62165 10.1328C5.875 9.40329 7.29194 9.13174 8.68296 9.35449V13.7441C8.04691 13.5136 7.36387 13.5204 6.73134 13.7634C6.09882 14.0065 5.54917 14.4734 5.16087 15.0975C4.77258 15.7216 4.56549 16.4711 4.56917 17.2388C4.57286 18.0065 4.78713 18.7532 5.1814 19.3724C5.57567 19.9915 6.12977 20.4514 6.76458 20.6864C7.3994 20.9214 8.08247 20.9194 8.71627 20.6808C9.35007 20.4422 9.90218 19.9792 10.2938 19.3578C10.6854 18.7364 10.8964 17.9884 10.8968 17.2207V0.160156H14.6289C14.6268 0.523566 14.6538 0.886428 14.7095 1.24414C14.8393 2.0415 15.109 2.80002 15.502 3.47334C15.8951 4.14665 16.4032 4.72062 16.9955 5.16016C17.8385 5.80119 18.8267 6.14251 19.837 6.1416V10.4092Z" fill="black"/>
</g>
<defs>
<clipPath id="clip0_1043_2462">
<rect width="19" height="25" fill="white" transform="translate(0.836975 0.160156)"/>
</clipPath>
</defs>
</svg>
