<svg width="29" height="32" viewBox="0 0 29 32" fill="none" xmlns="http://www.w3.org/2000/svg">
<circle cx="14.25" cy="14.25" r="14.25" transform="matrix(-1 0 0 1 28.5 2.12891)" fill="#2B2740" fill-opacity="0.97"/>
<path d="M21.0564 23.5L14.1176 7.5116H13.9504L7.01164 23.5H10.5228L11.7141 20.4904H16.8137L18.0677 23.5H21.0564ZM15.7478 17.9406H12.7173L14.2012 14.1996L15.7478 17.9406Z" fill="white"/>
<rect width="5.97139" height="1.49285" transform="matrix(-1 0 0 1 22.8002 13.9355)" fill="white"/>
<rect width="4.47854" height="1.49285" transform="matrix(-1 0 0 1 21.3072 16.9199)" fill="white"/>
<rect width="7.46424" height="1.49285" transform="matrix(-1 0 0 1 12.3499 13.9355)" fill="white"/>
<rect width="5.97139" height="1.49285" transform="matrix(-1 0 0 1 12.3499 16.9199)" fill="white"/>
</svg>
