<svg width="23" height="16" viewBox="0 0 23 16" fill="none" xmlns="http://www.w3.org/2000/svg">
<path d="M9.10256 11.3782L15.0079 7.96474L9.10256 4.55128V11.3782ZM22.2558 2.46907C22.4037 3.00385 22.5061 3.72067 22.5744 4.63093C22.654 5.54119 22.6881 6.32628 22.6881 7.00897L22.7564 7.96474C22.7564 10.4566 22.5744 12.2885 22.2558 13.4604C21.9713 14.4845 21.3114 15.1444 20.2873 15.4288C19.7526 15.5768 18.774 15.6792 17.2721 15.7474C15.7929 15.8271 14.4389 15.8612 13.1873 15.8612L11.3782 15.9295C6.61074 15.9295 3.64103 15.7474 2.46907 15.4288C1.44503 15.1444 0.785096 14.4845 0.500641 13.4604C0.352724 12.9256 0.250321 12.2088 0.182051 11.2986C0.102404 10.3883 0.0682692 9.60321 0.0682692 8.92051L0 7.96474C0 5.47292 0.182051 3.64103 0.500641 2.46907C0.785096 1.44503 1.44503 0.785096 2.46907 0.500641C3.00385 0.352724 3.98237 0.25032 5.48429 0.182051C6.96346 0.102404 8.31747 0.0682692 9.56907 0.0682692L11.3782 0C16.1457 0 19.1154 0.182051 20.2873 0.500641C21.3114 0.785096 21.9713 1.44503 22.2558 2.46907Z" fill="black"/>
</svg>
